<?xml version="1.0" encoding="UTF-8" standalone="no"?>
<svg
   xmlns:dc="http://purl.org/dc/elements/1.1/"
   xmlns:cc="http://creativecommons.org/ns#"
   xmlns:rdf="http://www.w3.org/1999/02/22-rdf-syntax-ns#"
   xmlns:svg="http://www.w3.org/2000/svg"
   xmlns="http://www.w3.org/2000/svg"
   xmlns:xlink="http://www.w3.org/1999/xlink"
   xmlns:sodipodi="http://sodipodi.sourceforge.net/DTD/sodipodi-0.dtd"
   xmlns:inkscape="http://www.inkscape.org/namespaces/inkscape"
   width="357.25177"
   height="73.65625"
   id="svg94"
   sodipodi:version="0.32"
   inkscape:version="0.46"
   sodipodi:docname="wordmark.svg"
   sodipodi:docbase="/var/www/html/svg_gallery/svg/animals"
   inkscape:output_extension="org.inkscape.output.svg.inkscape"
   version="1.0"
   inkscape:export-filename="C:\Documents and Settings\Stuart P. Bentley\My Documents\bzr\yattattack\192.png"
   inkscape:export-xdpi="40.658825"
   inkscape:export-ydpi="40.658825">
  <metadata
     id="metadata101" />
  <defs
     id="defs99">
    <inkscape:perspective
       sodipodi:type="inkscape:persp3d"
       inkscape:vp_x="-50 : 600 : 1"
       inkscape:vp_y="0 : 1000 : 0"
       inkscape:vp_z="700 : 600 : 1"
       inkscape:persp3d-origin="300 : 400 : 1"
       id="perspective2392" />
    <inkscape:perspective
       id="perspective3219"
       inkscape:persp3d-origin="150 : 25 : 1"
       inkscape:vp_z="300 : 37.5 : 1"
       inkscape:vp_y="0 : 1000 : 0"
       inkscape:vp_x="0 : 37.5 : 1"
       sodipodi:type="inkscape:persp3d" />
    <inkscape:perspective
       id="perspective3289"
       inkscape:persp3d-origin="150 : 25 : 1"
       inkscape:vp_z="300 : 37.5 : 1"
       inkscape:vp_y="0 : 1000 : 0"
       inkscape:vp_x="0 : 37.5 : 1"
       sodipodi:type="inkscape:persp3d" />
    <inkscape:perspective
       id="perspective3356"
       inkscape:persp3d-origin="150 : 25 : 1"
       inkscape:vp_z="300 : 37.5 : 1"
       inkscape:vp_y="0 : 1000 : 0"
       inkscape:vp_x="0 : 37.5 : 1"
       sodipodi:type="inkscape:persp3d" />
  </defs>
  <sodipodi:namedview
     inkscape:window-height="712"
     inkscape:window-width="1024"
     inkscape:pageshadow="2"
     inkscape:pageopacity="0"
     guidetolerance="10.0"
     gridtolerance="10.0"
     objecttolerance="10.0"
     borderopacity="1.0"
     bordercolor="#666666"
     pagecolor="#22ccff"
     id="base"
     inkscape:zoom="1.16"
     inkscape:cx="104.60164"
     inkscape:cy="-89.09869"
     inkscape:window-x="0"
     inkscape:window-y="22"
     inkscape:current-layer="svg94"
     showgrid="false" />
  <metadata
     id="metadata103">
    <rdf:RDF>
      <cc:Work
         rdf:about="">
        <dc:title>Clipart by Nicu Buculei - contour_chipmunk</dc:title>
        <dc:rights>
          <cc:Agent>
            <dc:title>Nicu Buculei</dc:title>
          </cc:Agent>
        </dc:rights>
        <dc:type
           rdf:resource="http://purl.org/dc/dcmitype/StillImage" />
        <cc:license
           rdf:resource="http://web.resource.org/cc/PublicDomain" />
        <dc:format>image/svg+xml</dc:format>
      </cc:Work>
      <cc:License
         rdf:about="http://web.resource.org/cc/PublicDomain">
        <cc:permits
           rdf:resource="http://web.resource.org/cc/Reproduction" />
        <cc:permits
           rdf:resource="http://web.resource.org/cc/Distribution" />
        <cc:permits
           rdf:resource="http://web.resource.org/cc/DerivativeWorks" />
      </cc:License>
    </rdf:RDF>
  </metadata>
  <path
     sodipodi:type="inkscape:offset"
     inkscape:radius="6.8578596"
     inkscape:original="M 91.96875 6.84375 C 90.29004 6.8438 88.849613 7.4558602 87.625 8.65625 C 86.40039 9.85673 85.781249 11.28862 85.78125 12.96875 L 85.78125 34.15625 C 85.78125 39.19679 87.58691 43.48683 91.1875 47.0625 C 94.78807 50.63819 99.117168 52.437501 104.15625 52.4375 L 105.65625 52.4375 C 107.3364 52.4375 108.76829 51.824712 109.96875 50.625 C 111.16916 49.4253 111.78122 47.992678 111.78125 46.3125 C 111.78122 44.63233 111.16916 43.200449 109.96875 42 C 108.76829 40.79957 107.3364 40.187522 105.65625 40.1875 L 104.0625 40.1875 C 102.43065 40.18752 101.0122 39.605968 99.8125 38.40625 C 98.61278 37.20656 98.03124 35.788099 98.03125 34.15625 L 98.03125 31.34375 L 105.65625 31.34375 C 107.3364 31.34377 108.76829 30.73098 109.96875 29.53125 C 111.16916 28.33157 111.78122 26.89896 111.78125 25.21875 C 111.78122 23.53861 111.16916 22.105991 109.96875 20.90625 C 108.76829 19.70658 107.3364 19.093779 105.65625 19.09375 L 98.09375 19.09375 L 98.09375 12.96875 C 98.09374 11.28862 97.481679 9.8567302 96.28125 8.65625 C 95.0808 7.45586 93.648922 6.8437999 91.96875 6.84375 z M 120.625 6.84375 C 118.94629 6.8438 117.50586 7.4558602 116.28125 8.65625 C 115.05664 9.85673 114.4375 11.28862 114.4375 12.96875 L 114.4375 34.15625 C 114.4375 39.19679 116.24316 43.48683 119.84375 47.0625 C 123.44432 50.63819 127.74218 52.437501 132.78125 52.4375 L 134.3125 52.4375 C 135.99265 52.4375 137.42455 51.824712 138.625 50.625 C 139.82541 49.4253 140.43748 47.992678 140.4375 46.3125 C 140.43747 44.63233 139.82542 43.200449 138.625 42 C 137.42454 40.79957 135.99264 40.187522 134.3125 40.1875 L 132.71875 40.1875 C 131.0869 40.18752 129.66845 39.605968 128.46875 38.40625 C 127.26903 37.20656 126.68749 35.788099 126.6875 34.15625 L 126.6875 31.34375 L 134.3125 31.34375 C 135.99265 31.34377 137.42455 30.73098 138.625 29.53125 C 139.82541 28.33157 140.43748 26.89896 140.4375 25.21875 C 140.43747 23.53861 139.82542 22.105991 138.625 20.90625 C 137.42454 19.70658 135.99264 19.093779 134.3125 19.09375 L 126.75 19.09375 L 126.75 12.96875 C 126.74999 11.28862 126.13793 9.8567302 124.9375 8.65625 C 123.73705 7.45586 122.30517 6.8437999 120.625 6.84375 z M 187.0625 6.84375 C 185.38379 6.8438 183.94337 7.4558602 182.71875 8.65625 C 181.49414 9.85673 180.87499 11.28862 180.875 12.96875 L 180.875 34.15625 C 180.875 39.19679 182.68066 43.48683 186.28125 47.0625 C 189.88182 50.63819 194.21091 52.437501 199.25 52.4375 L 200.75 52.4375 C 202.43015 52.4375 203.86205 51.824712 205.0625 50.625 C 206.26291 49.4253 206.87498 47.992678 206.875 46.3125 C 206.87497 44.63233 206.26292 43.200449 205.0625 42 C 203.86204 40.79957 202.43014 40.187522 200.75 40.1875 L 199.15625 40.1875 C 197.5244 40.18752 196.10595 39.605968 194.90625 38.40625 C 193.70653 37.20656 193.12499 35.788099 193.125 34.15625 L 193.125 31.34375 L 200.75 31.34375 C 202.43015 31.34377 203.86205 30.73098 205.0625 29.53125 C 206.26291 28.33157 206.87498 26.89896 206.875 25.21875 C 206.87497 23.53861 206.26292 22.105991 205.0625 20.90625 C 203.86204 19.70658 202.43014 19.093779 200.75 19.09375 L 193.1875 19.09375 L 193.1875 12.96875 C 193.18749 11.28862 192.57543 9.8567302 191.375 8.65625 C 190.17455 7.45586 188.74268 6.8437999 187.0625 6.84375 z M 215.09375 6.84375 C 213.41504 6.8438 211.9746 7.4558602 210.75 8.65625 C 209.52539 9.85673 208.90625 11.28862 208.90625 12.96875 L 208.90625 34.15625 C 208.90625 39.19679 210.71191 43.48683 214.3125 47.0625 C 217.91307 50.63819 222.24217 52.437501 227.28125 52.4375 L 228.78125 52.4375 C 230.4614 52.4375 231.89329 51.824712 233.09375 50.625 C 234.29416 49.4253 234.90622 47.992678 234.90625 46.3125 C 234.90622 44.63233 234.29416 43.200449 233.09375 42 C 231.89329 40.79957 230.4614 40.187522 228.78125 40.1875 L 227.21875 40.1875 C 225.5869 40.18752 224.16846 39.605968 222.96875 38.40625 C 221.76903 37.20656 221.15625 35.788099 221.15625 34.15625 L 221.15625 31.34375 L 228.78125 31.34375 C 230.4614 31.34377 231.89329 30.73098 233.09375 29.53125 C 234.29416 28.33157 234.90622 26.89896 234.90625 25.21875 C 234.90622 23.53861 234.29416 22.105991 233.09375 20.90625 C 231.89329 19.70658 230.4614 19.093779 228.78125 19.09375 L 221.21875 19.09375 L 221.21875 12.96875 C 221.21874 11.28862 220.63794 9.8567302 219.4375 8.65625 C 218.23705 7.45586 216.77391 6.8437999 215.09375 6.84375 z M 320.3125 6.84375 C 318.63231 6.8438 317.1997 7.45586 316 8.65625 C 314.80028 9.8567299 314.1875 11.28862 314.1875 12.96875 L 314.1875 46.3125 C 314.18749 47.992678 314.80029 49.4253 316 50.625 C 317.19969 51.824712 318.63232 52.4375 320.3125 52.4375 C 321.99266 52.437501 323.42528 51.82471 324.625 50.625 C 325.82468 49.425302 326.43748 47.99268 326.4375 46.3125 L 326.4375 40.34375 C 330.61374 40.343768 332.68748 40.34377 332.6875 40.34375 L 339.25 49.6875 C 340.49801 51.462901 342.16892 52.375 344.28125 52.375 C 345.96139 52.375001 347.39401 51.76221 348.59375 50.5625 C 349.79341 49.362801 350.40621 47.93018 350.40625 46.25 C 350.4062 44.905282 350.03317 43.72657 349.3125 42.71875 L 344.34375 35.65625 C 348.37642 32.00881 350.40621 27.501 350.40625 22.125 C 350.4062 20.44486 349.79342 19.01297 348.59375 17.8125 C 347.394 16.612089 345.9614 16.00004 344.28125 16 C 341.73678 16.00004 340.00632 17.04398 339.09375 19.15625 C 338.46969 21.07669 337.8569 23.01712 337.28125 24.9375 C 336.37008 27.048359 334.66941 28.09377 332.125 28.09375 L 326.4375 28.09375 L 326.4375 12.96875 C 326.43747 11.28862 325.82469 9.85673 324.625 8.65625 C 323.42527 7.4558599 321.99267 6.8438 320.3125 6.84375 z M 12.96875 15.875 C 11.288568 15.87503 9.856684 16.45658 8.65625 17.65625 C 7.4558084 18.85599 6.843749 20.28861 6.84375 21.96875 L 6.84375 31.25 C 6.8627991 31.68814 7.040901 35.06675 7.96875 38.84375 C 8.9322312 42.765791 13.910826 48.46875 19.09375 48.46875 L 31.15625 48.46875 C 31.156249 50.156089 30.585688 51.59734 29.40625 52.78125 C 28.226811 53.959802 26.777512 54.53125 25.09375 54.53125 L 12.96875 54.53125 C 11.286776 54.531251 9.827687 55.14194 8.625 56.34375 C 7.42142 57.54552 6.84375 59.00553 6.84375 60.6875 C 6.8437501 62.368601 7.42142 63.80089 8.625 65 C 9.827687 66.200888 11.284988 66.8125 12.96875 66.8125 L 25.09375 66.8125 C 30.142353 66.812498 34.448227 65.02231 38.03125 61.4375 C 41.616956 57.855369 43.4375 53.51913 43.4375 48.46875 C 43.437501 43.418369 43.4375 31.25 43.4375 31.25 L 43.4375 21.96875 C 43.437462 20.28861 42.818322 18.85599 41.59375 17.65625 C 40.369106 16.45658 38.928677 15.87503 37.25 15.875 C 35.569794 15.87503 34.10666 16.45658 32.90625 17.65625 C 31.705784 18.85599 31.124974 20.28861 31.125 21.96875 L 31.125 31.25 L 31.125 37.3125 L 25.15625 37.3125 C 23.522931 37.312501 22.10594 36.69972 20.90625 35.5 C 19.706529 34.300298 19.093736 32.88331 19.09375 31.25 L 19.09375 21.96875 C 19.093736 20.28861 18.480943 18.85599 17.28125 17.65625 C 16.081533 16.45658 14.648917 15.87503 12.96875 15.875 z M 64.0625 15.9375 C 59.070301 15.93753 54.794424 17.698521 51.21875 21.25 C 47.643063 24.80154 45.843749 29.115739 45.84375 34.15625 C 45.843748 39.19679 47.650144 43.48683 51.25 47.0625 C 54.849843 50.63819 59.164052 52.437501 64.15625 52.4375 L 81.0625 52.4375 C 82.74264 52.4375 84.175251 51.824712 85.375 50.625 C 86.57467 49.4253 86.742782 48.365891 86.375 46.5 C 86 44.59745 84.629362 43.913782 83.65625 40.75 C 82.69384 37.62101 82.437499 34.156249 82.4375 34.15625 C 82.43746 29.11574 80.631059 24.801541 77.03125 21.25 C 73.43136 17.69852 69.103001 15.93753 64.0625 15.9375 z M 158.90625 15.9375 C 153.91405 15.93753 149.60693 17.698521 146.03125 21.25 C 142.45557 24.80154 140.6875 29.115739 140.6875 34.15625 C 140.6875 39.19679 142.49389 43.48683 146.09375 47.0625 C 149.69359 50.63819 153.97655 52.437501 158.96875 52.4375 L 175.875 52.4375 C 177.55514 52.4375 178.98775 51.824712 180.1875 50.625 C 181.38717 49.4253 181.55527 48.365891 181.1875 46.5 C 180.8125 44.59745 179.47311 43.913782 178.5 40.75 C 177.53759 37.62101 177.25 34.156249 177.25 34.15625 C 177.24996 29.11574 175.44356 24.801541 171.84375 21.25 C 168.24386 17.69852 163.94675 15.93753 158.90625 15.9375 z M 253.71875 15.9375 C 248.72655 15.93753 244.45067 17.698521 240.875 21.25 C 237.29932 24.80154 235.5 29.115739 235.5 34.15625 C 235.5 39.19679 237.30639 43.48683 240.90625 47.0625 C 244.50609 50.63819 248.8203 52.437501 253.8125 52.4375 L 270.71875 52.4375 C 272.39889 52.4375 273.83151 51.824712 275.03125 50.625 C 276.23092 49.4253 276.39902 48.365891 276.03125 46.5 C 275.65625 44.59745 274.28562 43.913782 273.3125 40.75 C 272.35009 37.62101 272.09375 34.156249 272.09375 34.15625 C 272.09371 29.11574 270.28731 24.801541 266.6875 21.25 C 263.08761 17.69852 258.75925 15.93753 253.71875 15.9375 z M 293.5625 15.9375 C 288.52195 15.93753 284.23191 17.698521 280.65625 21.25 C 277.08056 24.80154 275.28124 29.115739 275.28125 34.15625 C 275.28125 39.19679 277.08764 43.48683 280.6875 47.0625 C 284.28735 50.63819 288.61569 52.437501 293.65625 52.4375 L 305.46875 52.4375 C 307.14743 52.4375 308.58076 51.824712 309.78125 50.625 C 310.98165 49.4253 311.56245 47.992678 311.5625 46.3125 C 311.56246 44.63233 310.97383 43.200449 309.75 42 C 308.52609 40.79957 307.05513 40.187522 305.375 40.1875 L 293.5625 40.1875 C 291.93064 40.18752 290.51292 39.605968 289.3125 38.40625 C 288.11205 37.20656 287.53123 35.788099 287.53125 34.15625 C 287.53124 32.52443 288.11204 31.113789 289.3125 29.9375 C 290.51293 28.76125 291.97604 28.15627 293.65625 28.15625 L 305.46875 28.15625 C 307.14743 28.15627 308.58076 27.57473 309.78125 26.375 C 310.98165 25.17532 311.56245 23.74271 311.5625 22.0625 C 311.56246 20.38236 310.97383 18.91849 309.75 17.71875 C 308.52609 16.51908 307.05513 15.93753 305.375 15.9375 L 293.5625 15.9375 z M 64.15625 28.15625 C 65.8364 28.15627 68.992246 28.136151 70.46875 31.34375 C 71.5491 33.69076 72.093752 40.406249 72.09375 40.40625 L 64.0625 40.1875 C 62.43065 40.18752 61.05052 39.61305 59.875 38.4375 C 58.699449 37.26198 58.093737 35.836439 58.09375 34.15625 C 58.093736 32.52443 58.699449 31.113789 59.875 29.9375 C 61.05052 28.76125 62.476061 28.15627 64.15625 28.15625 z M 158.96875 28.15625 C 160.6489 28.15627 163.836 28.136151 165.3125 31.34375 C 166.39285 33.69076 166.90625 40.406249 166.90625 40.40625 L 158.90625 40.1875 C 157.2744 40.18752 155.86302 39.61305 154.6875 38.4375 C 153.51195 37.26198 152.93748 35.836439 152.9375 34.15625 C 152.93748 32.52443 153.51195 31.113789 154.6875 29.9375 C 155.86302 28.76125 157.28856 28.15627 158.96875 28.15625 z M 253.8125 28.15625 C 255.49265 28.15627 258.6485 28.136151 260.125 31.34375 C 261.20535 33.69076 261.75 40.406249 261.75 40.40625 L 253.71875 40.1875 C 252.0869 40.18752 250.67552 39.61305 249.5 38.4375 C 248.32445 37.26198 247.74998 35.836439 247.75 34.15625 C 247.74998 32.52443 248.32445 31.113789 249.5 29.9375 C 250.67552 28.76125 252.13231 28.15627 253.8125 28.15625 z "
     xlink:href="#path3284"
     style="font-size:72px;font-style:normal;font-variant:normal;font-weight:800;font-stretch:normal;text-align:center;line-height:125%;writing-mode:lr-tb;text-anchor:middle;fill:#ffffff;fill-opacity:1;stroke:none;stroke-width:1px;stroke-linecap:butt;stroke-linejoin:miter;stroke-opacity:1;font-family:PicoBlackAl;-inkscape-font-specification:PicoBlackAl Ultra-Bold"
     id="path3457"
     inkscape:href="#path3284"
     d="M 91.96875,0 C 88.623233,9.9645476e-05 85.124691,1.4835451 82.8125,3.75 C 80.466345,6.049926 78.937498,9.6038345 78.9375,12.96875 L 78.9375,14 C 74.622413,10.856575 69.442981,9.093782 64.0625,9.09375 C 58.141926,9.0937856 52.484488,11.286427 47.96875,15.09375 C 47.455302,14.293097 47.058638,13.389159 46.40625,12.75 C 44.052733,10.444478 40.512469,9.0313083 37.25,9.03125 C 33.987445,9.0313083 30.44989,10.426582 28.0625,12.8125 C 26.723713,14.150477 25.775613,15.874287 25.125,17.71875 C 24.459046,15.862725 23.446159,14.133711 22.125,12.8125 C 19.778626,10.466218 16.231304,9.0313083 12.96875,9.03125 C 9.7061946,9.0313083 6.1577943,10.468698 3.8125,12.8125 C 1.5057098,15.117942 -1.9912896e-06,18.623105 0,21.96875 L 0,31.25 C -0.002373412,31.354153 -0.002373412,31.458347 0,31.5625 C 0.03316801,32.325383 0.20711944,35.969071 1.3125,40.46875 C 2.2025446,44.091853 4.1587242,46.938864 6.75,49.53125 C 5.6932111,50.115089 4.6070292,50.674823 3.78125,51.5 C 1.3888382,53.888814 4.2934406e-16,57.435316 0,60.6875 C 1.9345217e-07,63.939626 1.4206037,67.491871 3.78125,69.84375 C 6.120161,72.179162 9.6242825,73.65625 12.96875,73.65625 L 25.09375,73.65625 C 31.763507,73.656247 38.156954,71.00165 42.875,66.28125 C 46.158821,63.000703 48.402423,58.880012 49.5,54.4375 C 53.761751,57.520258 58.849104,59.281251 64.15625,59.28125 L 81.0625,59.28125 C 84.410126,59.28125 87.914468,57.772961 90.21875,55.46875 C 90.293767,55.393731 90.362184,55.267852 90.4375,55.1875 C 94.495697,57.822957 99.247271,59.281251 104.15625,59.28125 L 105.65625,59.28125 C 109.00388,59.28125 112.50929,57.77052 114.8125,55.46875 C 115.47471,54.806928 115.89156,53.890717 116.40625,53.0625 C 120.96134,56.987324 126.716,59.281251 132.78125,59.28125 L 134.3125,59.28125 C 137.66013,59.28125 141.16553,57.770554 143.46875,55.46875 C 143.77897,55.15871 143.9389,54.694096 144.21875,54.34375 C 148.49332,57.480425 153.60928,59.281251 158.96875,59.28125 L 175.875,59.28125 C 179.22263,59.28125 182.72697,57.772958 185.03125,55.46875 C 185.12993,55.370071 185.21342,55.201585 185.3125,55.09375 C 189.41366,57.811985 194.26064,59.281251 199.25,59.28125 L 200.75,59.28125 C 204.09763,59.28125 207.60303,57.770554 209.90625,55.46875 C 210.47499,54.900344 210.81954,54.100776 211.28125,53.40625 C 215.78641,57.123695 221.39513,59.281251 227.28125,59.28125 L 228.78125,59.28125 C 232.12888,59.28125 235.63429,57.77052 237.9375,55.46875 C 238.29943,55.107035 238.49231,54.572069 238.8125,54.15625 C 243.1428,57.404536 248.35652,59.281251 253.8125,59.28125 L 270.71875,59.28125 C 274.06638,59.28125 277.5707,57.772992 279.875,55.46875 C 279.93155,55.412197 279.9745,55.309603 280.03125,55.25 C 284.0686,57.846875 288.78454,59.281251 293.65625,59.28125 L 305.46875,59.28125 C 308.11798,59.28125 310.70069,58.162865 312.875,56.625 C 315.05285,58.172331 317.65459,59.28125 320.3125,59.28125 C 323.66014,59.281252 327.16446,57.773025 329.46875,55.46875 C 330.56923,54.368257 331.46317,52.970183 332.125,51.46875 L 333.625,53.625 C 335.89365,56.852348 340.19478,59.21875 344.28125,59.21875 C 347.62889,59.218752 351.13321,57.710483 353.4375,55.40625 C 355.7417,53.101975 357.24992,49.597566 357.25,46.25 C 357.2499,43.637166 356.44723,40.873729 354.90625,38.71875 L 352.96875,35.96875 C 355.69453,31.891505 357.24996,27.117367 357.25,22.125 C 357.2499,18.777512 355.73917,15.271955 353.4375,12.96875 C 351.13208,10.662059 347.62677,9.1563296 344.28125,9.15625 C 340.13054,9.1563153 335.38044,11.869003 333.28125,15.71875 L 333.28125,12.96875 C 333.28119,9.6212157 331.77044,6.1157081 329.46875,3.8125 C 327.16335,1.5058273 323.65803,9.9559231e-05 320.3125,0 C 316.96697,9.9558059e-05 313.46167,1.5057521 311.15625,3.8125 C 309.62986,5.3398519 308.49794,7.4044404 307.875,9.59375 C 307.03294,9.4198077 306.20663,9.0937648 305.375,9.09375 L 293.5625,9.09375 C 286.92471,9.0937895 280.52985,11.689552 275.8125,16.375 C 275.00637,17.175685 274.37096,18.107414 273.6875,19 C 272.99487,18.098649 272.31822,17.182246 271.5,16.375 C 266.7505,11.689365 260.3565,9.0937895 253.71875,9.09375 C 247.57444,9.0937869 241.68384,11.416249 237.09375,15.5 C 234.81659,13.579334 231.7912,12.250052 228.78125,12.25 L 227.90625,12.25 C 227.71356,9.1950661 226.45634,5.9876628 224.28125,3.8125 C 221.93483,1.4661957 218.43928,9.9360651e-05 215.09375,0 C 211.74823,9.9645476e-05 208.24971,1.4835021 205.9375,3.75 C 203.72901,5.9149694 202.29429,9.1922571 202.125,12.375 C 201.6682,12.320924 201.20426,12.250008 200.75,12.25 L 199.96875,12.25 C 199.7723,9.1261394 198.35962,5.9534555 196.21875,3.8125 C 193.91443,1.5082999 190.40803,9.9359549e-05 187.0625,0 C 183.71698,9.9645476e-05 180.21843,1.4835682 177.90625,3.75 C 175.56011,6.0499143 174.03123,9.6037892 174.03125,12.96875 L 174.03125,14.25 C 169.67116,10.969183 164.41266,9.0937828 158.90625,9.09375 C 152.83491,9.0937865 147.01778,11.373326 142.4375,15.375 C 140.17572,13.536242 137.24742,12.250051 134.3125,12.25 L 133.53125,12.25 C 133.3348,9.1261394 131.92212,5.9534555 129.78125,3.8125 C 127.47692,1.5082864 123.97053,9.9360137e-05 120.625,0 C 117.27948,9.9645476e-05 113.78095,1.4835352 111.46875,3.75 C 109.24592,5.9290293 107.80913,9.2352541 107.65625,12.4375 C 106.99323,12.324797 106.31718,12.250011 105.65625,12.25 L 104.875,12.25 C 104.67855,9.1261376 103.26586,5.953454 101.125,3.8125 C 98.820674,1.5082891 95.31428,9.936002e-05 91.96875,0 z"
     transform="translate(1.7750393e-3,0)" />
  <path
     id="path3284"
     style="font-size:72px;font-style:normal;font-variant:normal;font-weight:800;font-stretch:normal;text-align:center;line-height:125%;writing-mode:lr-tb;text-anchor:middle;fill:#22ccff;fill-opacity:1;stroke:none;stroke-width:1px;stroke-linecap:butt;stroke-linejoin:miter;stroke-opacity:1;font-family:PicoBlackAl;-inkscape-font-specification:PicoBlackAl Ultra-Bold"
     d="M 86.372431,46.506841 C 86.740211,48.372731 86.572611,49.436471 85.372941,50.636171 C 84.173191,51.835881 82.733251,52.435731 81.053111,52.435731 L 64.143281,52.435731 C 59.151082,52.435731 54.855066,50.647891 51.255223,47.072201 C 47.655366,43.496531 45.855441,39.188431 45.855443,34.147891 C 45.855441,29.107381 47.643281,24.811371 51.218968,21.259831 C 54.794641,17.708351 59.078572,15.932591 64.070771,15.932561 C 69.111271,15.932591 73.431451,17.708351 77.031341,21.259831 C 80.631151,24.811371 82.431081,29.107381 82.431121,34.147891 C 82.431121,34.147891 82.696451,37.636511 83.658861,40.765501 C 84.631971,43.929281 85.997431,44.604291 86.372431,46.506841 z M 70.471531,31.340411 C 68.995031,28.132811 65.823431,28.171351 64.143281,28.171331 C 62.463091,28.171351 61.035235,28.759481 59.859715,29.935731 C 58.684164,31.112021 58.096396,32.516071 58.09641,34.147891 C 58.096396,35.828081 58.684164,37.255941 59.859715,38.431461 C 61.035235,39.607011 62.438921,40.194781 64.070771,40.194761 L 72.081911,40.410281 C 72.081911,40.410281 71.551881,33.687421 70.471531,31.340411 z M 111.7756,46.316351 C 111.77557,47.996531 111.17535,49.436471 109.97494,50.636171 C 108.77448,51.835881 107.33417,52.435731 105.65402,52.435731 L 104.1423,52.435731 C 99.103221,52.435731 94.783401,50.647891 91.182831,47.072201 C 87.582241,43.496531 85.781951,39.188431 85.781951,34.147891 L 85.781951,12.973421 C 85.781951,11.293291 86.394251,9.8529813 87.618861,8.6525013 C 88.843471,7.4521113 90.295131,6.8518913 91.973841,6.8518413 C 93.654011,6.8518913 95.094311,7.4521113 96.294761,8.6525013 C 97.495191,9.8529813 98.095411,11.293291 98.095421,12.973421 L 98.095421,19.092811 L 105.65402,19.092811 C 107.33417,19.092841 108.77448,19.692701 109.97494,20.892371 C 111.17535,22.092111 111.77557,23.532051 111.7756,25.212191 C 111.77557,26.892401 111.17535,28.332341 109.97494,29.532021 C 108.77448,30.731751 107.33417,31.331601 105.65402,31.331581 L 98.022911,31.331581 L 98.022911,34.147891 C 98.022901,35.779741 98.622751,37.195511 99.822471,38.395201 C 101.02217,39.594921 102.43794,40.194781 104.06979,40.194761 L 105.65402,40.194761 C 107.33417,40.194781 108.77448,40.794991 109.97494,41.995421 C 111.17535,43.195871 111.77557,44.636181 111.7756,46.316351 L 111.7756,46.316351 z M 311.57464,46.316351 C 311.5746,47.996531 310.97438,49.436471 309.77398,50.636171 C 308.5735,51.835881 307.13393,52.435731 305.45525,52.435731 L 293.64715,52.435731 C 288.6066,52.435731 284.28642,50.647891 280.68657,47.072201 C 277.08672,43.496531 275.28679,39.188431 275.28679,34.147891 C 275.28679,29.107381 277.07463,24.811371 280.65032,21.259831 C 284.22599,17.708351 288.53409,15.932591 293.57464,15.932561 L 305.38274,15.932561 C 307.06288,15.932591 308.51491,16.532451 309.73882,17.732121 C 310.96266,18.931861 311.5746,20.371801 311.57464,22.051941 C 311.5746,23.732151 310.97438,25.172091 309.77398,26.371771 C 308.5735,27.571501 307.13393,28.171351 305.45525,28.171331 L 293.64715,28.171331 C 291.96695,28.171351 290.52665,28.759481 289.32622,29.935731 C 288.12577,31.112021 287.52555,32.516071 287.52556,34.147891 C 287.52555,35.779741 288.12577,37.195511 289.32622,38.395201 C 290.52665,39.594921 291.94278,40.194781 293.57464,40.194761 L 305.38274,40.194761 C 307.06288,40.194781 308.51491,40.794991 309.73882,41.995421 C 310.96266,43.195871 311.5746,44.636181 311.57464,46.316351 L 311.57464,46.316351 z M 314.18499,12.973661 L 314.18499,46.316351 C 314.18499,47.996531 314.78484,49.436471 315.98455,50.636171 C 317.18425,51.835881 318.62419,52.435731 320.30437,52.435731 C 321.98454,52.435731 323.42448,51.835881 324.6242,50.636171 C 325.82389,49.436471 326.42374,47.996531 326.42376,46.316351 L 326.42376,40.339781 C 330.60001,40.339801 332.68814,40.339801 332.68816,40.339781 L 339.24041,49.700131 C 340.48843,51.475531 342.1686,52.363221 344.28093,52.363221 C 345.96108,52.363221 347.40102,51.763371 348.60076,50.563661 C 349.80043,49.363961 350.40028,47.924021 350.40032,46.243841 L 350.40032,46.243841 C 350.40028,44.899121 350.03993,43.722851 349.31926,42.715031 L 344.35125,35.659611 C 348.38393,32.012171 350.40028,27.500451 350.40032,22.124451 C 350.40028,20.444311 349.80043,19.004001 348.60076,17.803531 C 347.40102,16.603121 345.96108,16.002911 344.28093,16.002871 C 341.73647,16.002911 340.00796,17.059061 339.09539,19.171331 C 338.47134,21.091771 337.87148,23.012181 337.29583,24.932561 C 336.38467,27.043421 334.65689,28.098841 332.11248,28.098821 L 326.42376,28.098821 L 326.42376,12.973661 C 326.42374,11.293531 325.82389,9.8532213 324.6242,8.6527413 C 323.42448,7.4523513 321.98454,6.8521313 320.30437,6.8520813 C 318.62419,6.8521313 317.18425,7.4523513 315.98455,8.6527413 C 314.78484,9.8532213 314.18499,11.293531 314.18499,12.973661 z M 19.092415,48.473491 L 31.162267,48.473491 C 31.162267,50.160831 30.581266,51.592871 29.401828,52.776781 C 28.22239,53.955331 26.782296,54.537221 25.098534,54.537221 L 12.971067,54.537221 C 11.289093,54.537221 9.8425166,55.151751 8.6398296,56.353561 C 7.4362496,57.555331 6.8514486,59.002811 6.8514486,60.684781 C 6.8514486,62.365881 7.4362496,63.788971 8.6398296,64.988081 C 9.8425166,66.188971 11.287305,66.804411 12.971067,66.804411 L 25.098534,66.804411 C 30.147137,66.804411 34.453336,65.024071 38.036359,61.439261 C 41.622064,57.857131 43.429448,53.523871 43.429448,48.473491 C 43.429448,43.423111 43.429329,31.264511 43.429329,31.264511 L 43.429329,21.979431 C 43.429291,20.299291 42.816987,18.859351 41.592415,17.659611 C 40.367771,16.459941 38.916112,15.860081 37.237435,15.860051 C 35.557228,15.860081 34.116922,16.459941 32.916512,17.659611 C 31.716046,18.859351 31.115827,20.299291 31.115853,21.979431 L 31.115853,31.264511 L 31.115853,37.313581 L 25.141487,37.313581 C 23.508168,37.313581 22.091666,36.713741 20.891976,35.514021 C 19.692254,34.314321 19.092401,32.897821 19.092415,31.264511 L 19.092415,21.979431 C 19.092401,20.299291 18.492548,18.859351 17.292855,17.659611 C 16.093137,16.459941 14.653197,15.860081 12.97303,15.860051 C 11.292848,15.860081 9.8525426,16.459941 8.6521086,17.659611 C 7.4516666,18.859351 6.8514476,20.299291 6.8514486,21.979431 L 6.8514486,31.264511 C 6.8704976,31.702651 7.0378976,35.080011 7.9657466,38.857011 C 8.9292276,42.779051 13.909491,48.473491 19.092415,48.473491 z M 181.20002,46.506841 C 181.5678,48.372731 181.4002,49.436471 180.20053,50.636171 C 179.00078,51.835881 177.56084,52.435731 175.8807,52.435731 L 158.97087,52.435731 C 153.97867,52.435731 149.68265,50.647891 146.08281,47.072201 C 142.48295,43.496531 140.68303,39.188431 140.68303,34.147891 C 140.68303,29.107381 142.47087,24.811371 146.04655,21.259831 C 149.62223,17.708351 153.90616,15.932591 158.89836,15.932561 C 163.93886,15.932591 168.25904,17.708351 171.85893,21.259831 C 175.45874,24.811371 177.25867,29.107381 177.25871,34.147891 C 177.25871,34.147891 177.52404,37.636511 178.48645,40.765501 C 179.45956,43.929281 180.82502,44.604291 181.20002,46.506841 z M 165.29912,31.340411 C 163.82262,28.132811 160.65102,28.171351 158.97087,28.171331 C 157.29068,28.171351 155.86282,28.759481 154.6873,29.935731 C 153.51175,31.112021 152.92398,32.516071 152.924,34.147891 C 152.92398,35.828081 153.51175,37.255941 154.6873,38.431461 C 155.86282,39.607011 157.26651,40.194781 158.89836,40.194761 L 166.9095,40.410281 C 166.9095,40.410281 166.37947,33.687421 165.29912,31.340411 z M 276.02761,46.506841 C 276.39539,48.372731 276.22779,49.436471 275.02812,50.636171 C 273.82837,51.835881 272.38843,52.435731 270.70829,52.435731 L 253.79846,52.435731 C 248.80626,52.435731 244.51024,50.647891 240.9104,47.072201 C 237.31054,43.496531 235.51062,39.188431 235.51062,34.147891 C 235.51062,29.107381 237.29846,24.811371 240.87414,21.259831 C 244.44982,17.708351 248.73375,15.932591 253.72595,15.932561 C 258.76645,15.932591 263.08663,17.708351 266.68652,21.259831 C 270.28633,24.811371 272.08626,29.107381 272.0863,34.147891 C 272.0863,34.147891 272.35163,37.636511 273.31404,40.765501 C 274.28715,43.929281 275.65261,44.604291 276.02761,46.506841 z M 260.12671,31.340411 C 258.65021,28.132811 255.47861,28.171351 253.79846,28.171331 C 252.11827,28.171351 250.69041,28.759481 249.51489,29.935731 C 248.33934,31.112021 247.75157,32.516071 247.75159,34.147891 C 247.75157,35.828081 248.33934,37.255941 249.51489,38.431461 C 250.69041,39.607011 252.0941,40.194781 253.72595,40.194761 L 261.73709,40.410281 C 261.73709,40.410281 261.20706,33.687421 260.12671,31.340411 z M 140.42562,46.316351 C 140.42559,47.996531 139.82537,49.436471 138.62496,50.636171 C 137.4245,51.835881 135.98419,52.435731 134.30404,52.435731 L 132.79232,52.435731 C 127.75324,52.435731 123.43342,50.647891 119.83285,47.072201 C 116.23226,43.496531 114.43197,39.188431 114.43197,34.147891 L 114.43197,12.973421 C 114.43197,11.293291 115.04427,9.8529813 116.26888,8.6525013 C 117.49349,7.4521113 118.94515,6.8518913 120.62386,6.8518413 C 122.30403,6.8518913 123.74433,7.4521113 124.94478,8.6525013 C 126.14521,9.8529813 126.74543,11.293291 126.74544,12.973421 L 126.74544,19.092811 L 134.30404,19.092811 C 135.98419,19.092841 137.4245,19.692701 138.62496,20.892371 C 139.82537,22.092111 140.42559,23.532051 140.42562,25.212191 C 140.42559,26.892401 139.82537,28.332341 138.62496,29.532021 C 137.4245,30.731751 135.98419,31.331601 134.30404,31.331581 L 126.67293,31.331581 L 126.67293,34.147891 C 126.67292,35.779741 127.27277,37.195511 128.47249,38.395201 C 129.67219,39.594921 131.08796,40.194781 132.71981,40.194761 L 134.30404,40.194761 C 135.98419,40.194781 137.4245,40.794991 138.62496,41.995421 C 139.82537,43.195871 140.42559,44.636181 140.42562,46.316351 L 140.42562,46.316351 z M 206.86927,46.316351 C 206.86924,47.996531 206.26902,49.436471 205.06861,50.636171 C 203.86815,51.835881 202.42784,52.435731 200.74769,52.435731 L 199.23597,52.435731 C 194.19689,52.435731 189.87707,50.647891 186.2765,47.072201 C 182.67591,43.496531 180.87562,39.188431 180.87562,34.147891 L 180.87562,12.973421 C 180.87562,11.293291 181.48792,9.8529813 182.71253,8.6525013 C 183.93714,7.4521113 185.3888,6.8518913 187.06751,6.8518413 C 188.74768,6.8518913 190.18798,7.4521113 191.38843,8.6525013 C 192.58886,9.8529813 193.18908,11.293291 193.18909,12.973421 L 193.18909,19.092811 L 200.74769,19.092811 C 202.42784,19.092841 203.86815,19.692701 205.06861,20.892371 C 206.26902,22.092111 206.86924,23.532051 206.86927,25.212191 C 206.86924,26.892401 206.26902,28.332341 205.06861,29.532021 C 203.86815,30.731751 202.42784,31.331601 200.74769,31.331581 L 193.11658,31.331581 L 193.11658,34.147891 C 193.11657,35.779741 193.71642,37.195511 194.91614,38.395201 C 196.11584,39.594921 197.53161,40.194781 199.16346,40.194761 L 200.74769,40.194761 C 202.42784,40.194781 203.86815,40.794991 205.06861,41.995421 C 206.26902,43.195871 206.86924,44.636181 206.86927,46.316351 L 206.86927,46.316351 z M 234.90971,46.316351 C 234.90968,47.996531 234.30946,49.436471 233.10905,50.636171 C 231.90859,51.835881 230.46828,52.435731 228.78813,52.435731 L 227.27641,52.435731 C 222.23733,52.435731 217.91751,50.647891 214.31694,47.072201 C 210.71635,43.496531 208.91606,39.188431 208.91606,34.147891 L 208.91606,12.973421 C 208.91606,11.293291 209.52836,9.8529813 210.75297,8.6525013 C 211.97758,7.4521113 213.42924,6.8518913 215.10795,6.8518413 C 216.78812,6.8518913 218.22842,7.4521113 219.42887,8.6525013 C 220.6293,9.8529813 221.22952,11.293291 221.22953,12.973421 L 221.22953,19.092811 L 228.78813,19.092811 C 230.46828,19.092841 231.90859,19.692701 233.10905,20.892371 C 234.30946,22.092111 234.90968,23.532051 234.90971,25.212191 C 234.90968,26.892401 234.30946,28.332341 233.10905,29.532021 C 231.90859,30.731751 230.46828,31.331601 228.78813,31.331581 L 221.15702,31.331581 L 221.15702,34.147891 C 221.15701,35.779741 221.75686,37.195511 222.95658,38.395201 C 224.15628,39.594921 225.57205,40.194781 227.2039,40.194761 L 228.78813,40.194761 C 230.46828,40.194781 231.90859,40.794991 233.10905,41.995421 C 234.30946,43.195871 234.90968,44.636181 234.90971,46.316351 L 234.90971,46.316351 z"
     sodipodi:nodetypes="csccssssscsccssssccccsccsccssscccssscccsccscccsccsssccsssccsssccsccccsssccccssccccssscccccssscccsccssscccsccsssccccsccsssccsccsccssssscsccssssccccsccssssscsccssssccccsccsccssscccssscccsccscccsccsccssscccssscccsccscccsccsccssscccssscccsccscc" />
</svg>
