<?xml version="1.0" encoding="UTF-8" standalone="no"?>
<svg
   xmlns:dc="http://purl.org/dc/elements/1.1/"
   xmlns:cc="http://creativecommons.org/ns#"
   xmlns:rdf="http://www.w3.org/1999/02/22-rdf-syntax-ns#"
   xmlns:svg="http://www.w3.org/2000/svg"
   xmlns="http://www.w3.org/2000/svg"
   xmlns:xlink="http://www.w3.org/1999/xlink"
   xmlns:sodipodi="http://sodipodi.sourceforge.net/DTD/sodipodi-0.dtd"
   xmlns:inkscape="http://www.inkscape.org/namespaces/inkscape"
   width="425"
   height="425"
   id="svg94"
   sodipodi:version="0.32"
   inkscape:version="0.46"
   sodipodi:docname="wordmark.svg"
   sodipodi:docbase="/var/www/html/svg_gallery/svg/animals"
   inkscape:output_extension="org.inkscape.output.svg.inkscape"
   version="1.0"
   inkscape:export-filename="C:\Documents and Settings\Stuart P. Bentley\My Documents\bzr\yattattack\192.png"
   inkscape:export-xdpi="40.658825"
   inkscape:export-ydpi="40.658825">
  <metadata
     id="metadata101" />
  <defs
     id="defs99">
    <inkscape:perspective
       sodipodi:type="inkscape:persp3d"
       inkscape:vp_x="-50 : 600 : 1"
       inkscape:vp_y="0 : 1000 : 0"
       inkscape:vp_z="700 : 600 : 1"
       inkscape:persp3d-origin="300 : 400 : 1"
       id="perspective2392" />
    <inkscape:perspective
       id="perspective3219"
       inkscape:persp3d-origin="150 : 25 : 1"
       inkscape:vp_z="300 : 37.5 : 1"
       inkscape:vp_y="0 : 1000 : 0"
       inkscape:vp_x="0 : 37.5 : 1"
       sodipodi:type="inkscape:persp3d" />
    <inkscape:perspective
       id="perspective3289"
       inkscape:persp3d-origin="150 : 25 : 1"
       inkscape:vp_z="300 : 37.5 : 1"
       inkscape:vp_y="0 : 1000 : 0"
       inkscape:vp_x="0 : 37.5 : 1"
       sodipodi:type="inkscape:persp3d" />
    <inkscape:perspective
       id="perspective3356"
       inkscape:persp3d-origin="150 : 25 : 1"
       inkscape:vp_z="300 : 37.5 : 1"
       inkscape:vp_y="0 : 1000 : 0"
       inkscape:vp_x="0 : 37.5 : 1"
       sodipodi:type="inkscape:persp3d" />
  </defs>
  <sodipodi:namedview
     inkscape:window-height="712"
     inkscape:window-width="1024"
     inkscape:pageshadow="2"
     inkscape:pageopacity="0"
     guidetolerance="10.0"
     gridtolerance="10.0"
     objecttolerance="10.0"
     borderopacity="1.0"
     bordercolor="#666666"
     pagecolor="#22ccff"
     id="base"
     inkscape:zoom="1.6404877"
     inkscape:cx="254.14348"
     inkscape:cy="105.91523"
     inkscape:window-x="-4"
     inkscape:window-y="-4"
     inkscape:current-layer="svg94"
     showgrid="false" />
  <metadata
     id="metadata103">
    <rdf:RDF>
      <cc:Work
         rdf:about="">
        <dc:title>Clipart by Nicu Buculei - contour_chipmunk</dc:title>
        <dc:rights>
          <cc:Agent>
            <dc:title>Nicu Buculei</dc:title>
          </cc:Agent>
        </dc:rights>
        <dc:type
           rdf:resource="http://purl.org/dc/dcmitype/StillImage" />
        <cc:license
           rdf:resource="http://web.resource.org/cc/PublicDomain" />
        <dc:format>image/svg+xml</dc:format>
      </cc:Work>
      <cc:License
         rdf:about="http://web.resource.org/cc/PublicDomain">
        <cc:permits
           rdf:resource="http://web.resource.org/cc/Reproduction" />
        <cc:permits
           rdf:resource="http://web.resource.org/cc/Distribution" />
        <cc:permits
           rdf:resource="http://web.resource.org/cc/DerivativeWorks" />
      </cc:License>
    </rdf:RDF>
  </metadata>
  <path
     sodipodi:type="inkscape:offset"
     inkscape:radius="6.8507347"
     inkscape:original="M 146.3125 81.78125 C 144.38751 81.781251 142.7725 82.46425 141.4375 83.78125 C 140.10251 85.100251 139.40625 86.72125 139.40625 88.65625 L 139.40625 116 C 139.40626 121.648 141.4275 126.494 145.4375 130.5 C 149.44451 134.509 154.26025 136.5 159.90625 136.5 L 173.46875 136.5 C 175.35176 136.5 176.9675 135.81175 178.3125 134.46875 C 179.65851 133.12776 180.3125 131.53625 180.3125 129.65625 C 180.31251 127.77525 179.6585 126.1565 178.3125 124.8125 C 176.96751 123.46849 175.34975 122.78125 173.46875 122.78125 L 159.90625 122.78125 C 158.02326 122.78125 156.41275 122.1305 155.09375 120.8125 C 153.77476 119.4885 153.125 117.887 153.125 116 L 153.125 109.21875 L 173.46875 109.21875 C 175.34976 109.21875 176.9675 108.5295 178.3125 107.1875 C 179.65851 105.8435 180.3125 104.22375 180.3125 102.34375 C 180.31251 100.46275 179.6635 98.87425 178.3125 97.53125 C 176.96251 96.187243 175.3245 95.5 173.4375 95.5 L 153.125 95.5 L 153.125 88.65625 C 153.12501 86.773251 152.462 85.1535 151.125 83.8125 C 149.79301 82.465501 148.1805 81.78125 146.3125 81.78125 z "
     xlink:href="#path3296"
     style="fill:#ffffff;fill-opacity:1"
     id="path3298"
     inkscape:href="#path3296"
     d="M 154.0625,146.5 C 150.51705,146.5 146.83346,148.04344 144.375,150.46875 C 141.89095,152.92305 140.3125,156.64038 140.3125,160.21875 L 140.3125,187.5625 C 140.31251,194.84494 143.19377,201.76141 148.34375,206.90625 C 153.48919,212.05425 160.3997,214.90625 167.65625,214.90625 L 181.21875,214.90625 C 184.77112,214.90627 188.44817,213.32942 190.90625,210.875 C 193.38623,208.40428 194.90625,204.68751 194.90625,201.21875 C 194.90627,197.74976 193.41337,194.03464 190.90625,191.53125 C 188.5819,189.20861 185.17288,187.72656 181.8125,187.5625 C 185.17661,187.39801 188.58459,185.91023 190.90625,183.59375 C 193.41463,181.08913 194.90625,177.37501 194.90625,173.90625 C 194.90627,170.4494 193.39481,166.72382 190.90625,164.25 C 188.42021,161.77499 184.73787,160.21875 181.1875,160.21875 L 167.71875,160.21875 C 167.71877,156.72762 166.20367,153.02361 163.71875,150.53125 C 161.25866,148.04344 157.60345,146.5 154.0625,146.5 z" />
  <path
     id="path3296"
     d="M 146.3124,81.781266 C 144.3874,81.781266 142.7724,82.464266 141.4374,83.781266 C 140.1024,85.100266 139.40615,86.721266 139.40615,88.656266 L 139.40615,116.00003 C 139.40615,121.64803 141.4274,126.49403 145.4374,130.50003 C 149.4444,134.50903 154.26015,136.50003 159.90615,136.50003 L 173.46865,136.50003 C 175.35165,136.50003 176.9674,135.81178 178.3124,134.46878 C 179.6584,133.12779 180.3124,131.53628 180.3124,129.65628 C 180.3124,127.77528 179.6584,126.15653 178.3124,124.81253 C 176.9674,123.46852 175.34965,122.78128 173.46865,122.78128 L 159.90615,122.78128 C 158.02315,122.78128 156.41265,122.13053 155.09365,120.81253 C 153.77465,119.48853 153.1249,117.88703 153.1249,116.00003 L 153.1249,109.21878 L 173.46865,109.21878 C 175.34965,109.21878 176.9674,108.52953 178.3124,107.18753 C 179.6584,105.84353 180.3124,104.22378 180.3124,102.34378 C 180.3124,100.46278 179.6634,98.874276 178.3124,97.531276 C 176.9624,96.187266 175.3244,95.500016 173.4374,95.500016 L 153.1249,95.500016 L 153.1249,88.656266 C 153.1249,86.773266 152.4619,85.153516 151.1249,83.812516 C 149.7929,82.465516 148.1804,81.781266 146.3124,81.781266 z"
     style="fill:#33ccff" />
  <path
     sodipodi:type="inkscape:offset"
     inkscape:radius="6.8965516"
     inkscape:original="M 359.15625 289.125 C 357.47607 289.12505 356.04344 289.70586 354.84375 290.90625 C 353.64404 292.10673 353.06249 293.56987 353.0625 295.25 L 353.0625 331.8125 C 353.0625 333.49268 353.64403 334.9253 354.84375 336.125 C 356.04345 337.32471 357.47608 337.9375 359.15625 337.9375 C 360.83642 337.9375 362.30027 337.32471 363.5 336.125 C 364.69969 334.9253 365.28122 333.49268 365.28125 331.8125 L 365.28125 325.84375 C 369.4575 325.84377 371.56249 325.84377 371.5625 325.84375 L 378.09375 335.1875 C 379.34177 336.9629 381.04393 337.84375 383.15625 337.84375 C 384.8364 337.84375 386.269 337.26221 387.46875 336.0625 C 388.66842 334.8628 389.2812 333.43018 389.28125 331.75 C 389.28121 330.40528 388.90818 329.22657 388.1875 328.21875 L 383.21875 321.15625 C 387.25143 317.50881 389.2812 313.001 389.28125 307.625 C 389.28121 305.94486 388.66841 304.51297 387.46875 303.3125 C 386.26901 302.11209 384.83641 301.50004 383.15625 301.5 C 380.61179 301.50004 378.88131 302.54398 377.96875 304.65625 C 377.3447 306.57669 376.73189 308.51712 376.15625 310.4375 C 375.24509 312.54836 373.51315 313.59377 370.96875 313.59375 L 365.28125 313.59375 L 365.28125 295.25 C 365.28123 293.56987 364.69968 292.10673 363.5 290.90625 C 362.30028 289.70586 360.83643 289.12505 359.15625 289.125 z "
     xlink:href="#text2449"
     style="font-size:72px;font-style:normal;font-variant:normal;font-weight:800;font-stretch:normal;text-align:center;line-height:125%;writing-mode:lr-tb;text-anchor:middle;fill:#ffffff;fill-opacity:1;stroke:none;stroke-width:1px;stroke-linecap:butt;stroke-linejoin:miter;stroke-opacity:1;font-family:PicoBlackAl;-inkscape-font-specification:PicoBlackAl Ultra-Bold"
     id="path3225"
     inkscape:href="#text2449"
     d="M 124.75,188.25 C 121.48067,188.2501 117.96545,189.64456 115.5625,192 C 113.12544,194.38906 111.65625,197.99235 111.65625,201.28125 L 111.65625,205.4375 C 107.35213,202.33138 102.1939,200.56254 96.84375,200.5625 C 90.632089,200.56255 84.677077,202.96139 80.0625,207.125 C 79.473679,206.07171 78.801836,205.06619 77.96875,204.25 C 75.609724,201.93908 72.138191,200.46883 68.78125,200.46875 C 65.424304,200.46883 61.903164,202.00451 59.59375,204.3125 C 58.320223,205.58526 57.32788,207.2228 56.65625,209 C 55.984636,207.22328 54.990815,205.58461 53.71875,204.3125 C 51.408237,202.00208 47.888196,200.46883 44.53125,200.46875 C 41.174304,200.46883 37.653159,202.00456 35.34375,204.3125 C 33.030718,206.62418 31.499996,210.14495 31.5,213.5 L 31.5,226.75 C 31.499997,231.92963 33.12255,237.02267 36.15625,241.28125 C 38.181757,244.1246 40.805829,246.44178 43.75,248.21875 L 43.75,250.09375 C 43.749973,253.36531 45.21216,256.92948 47.5625,259.28125 C 49.874179,261.59436 53.394982,263.12498 56.75,263.125 C 60.105018,263.12498 63.615866,261.63407 65.96875,259.28125 C 68.321559,256.92837 69.781199,253.36322 69.78125,250.09375 L 69.78125,248.1875 C 72.715041,246.40088 75.325584,244.09423 77.3125,241.25 C 77.916263,242.00637 78.463423,242.81183 79.15625,243.5 C 83.875835,248.18792 90.256925,250.875 96.90625,250.875 L 109.09375,250.875 C 112.45079,250.875 115.97073,249.34172 118.28125,247.03125 C 119.03889,246.27359 119.66684,245.36497 120.21875,244.40625 C 124.81894,248.48309 130.71252,250.875 136.90625,250.875 L 138.4375,250.875 C 141.79454,250.875 145.31558,249.33923 147.625,247.03125 C 148.30348,246.35317 148.89136,245.56203 149.40625,244.71875 C 153.96716,248.6073 159.71765,250.875 165.75,250.875 L 167.25,250.875 C 170.60704,250.875 174.12808,249.33923 176.4375,247.03125 C 177.17927,246.28992 177.66395,245.28886 178.21875,244.34375 C 182.83276,248.4626 188.74343,250.875 194.9375,250.875 L 207.09375,250.875 C 210.45079,250.875 213.97073,249.34172 216.28125,247.03125 C 217.03215,246.28033 217.5346,245.27202 218.09375,244.3125 C 222.72409,248.46683 228.68901,250.875 234.9375,250.875 L 236.4375,250.875 C 239.79454,250.875 243.31558,249.33923 245.625,247.03125 C 246.30496,246.35169 246.72546,245.41648 247.25,244.5625 C 251.82411,248.53869 257.63856,250.875 263.75,250.875 L 265.28125,250.875 C 268.63829,250.875 272.15931,249.33927 274.46875,247.03125 C 275.21121,246.28923 275.82988,245.40453 276.375,244.46875 C 280.95705,248.50523 286.80245,250.875 292.9375,250.875 L 305.125,250.875 C 308.48204,250.875 312.00196,249.34175 314.3125,247.03125 C 315.00621,246.33752 315.60247,245.5221 316.125,244.65625 C 320.6812,248.56879 326.44031,250.875 332.5,250.875 L 344.3125,250.875 C 346.96341,250.875 349.57143,249.75516 351.75,248.21875 C 353.92538,249.74682 356.51403,250.875 359.15625,250.875 C 362.51329,250.875 366.02211,249.38416 368.375,247.03125 C 369.47151,245.93473 370.35143,244.56434 371,243.09375 L 372.4375,245.15625 C 372.43748,245.16667 372.43748,245.17708 372.4375,245.1875 C 374.74306,248.4673 379.05862,250.8125 383.15625,250.8125 C 386.51329,250.8125 390.03321,249.27925 392.34375,246.96875 C 394.65419,244.65826 396.18746,241.1383 396.1875,237.78125 C 396.18742,235.16123 395.35813,232.41146 393.8125,230.25 L 391.875,227.5 C 394.59721,223.42012 396.18748,218.64803 396.1875,213.65625 C 396.18742,210.29936 394.65169,206.77819 392.34375,204.46875 C 390.03211,202.15584 386.5112,200.62508 383.15625,200.625 C 379.04314,200.62506 374.3313,203.30358 372.1875,207.09375 L 372.1875,201.28125 C 372.18748,198.00978 370.76755,194.4566 368.375,192.0625 C 365.97872,189.66488 362.42566,188.2501 359.15625,188.25 C 355.88684,188.2501 352.3227,189.70724 349.96875,192.0625 C 347.65188,194.38088 346.30457,197.78488 346.21875,200.96875 C 345.55694,200.85884 344.90189,200.56252 344.25,200.5625 L 332.4375,200.5625 C 325.79072,200.56255 319.38006,203.18318 314.65625,207.875 C 313.91609,208.61016 313.32465,209.4681 312.6875,210.28125 C 312.04529,209.46362 311.43639,208.61384 310.6875,207.875 C 305.93152,203.18296 299.52176,200.56255 292.875,200.5625 C 286.78929,200.56255 280.95052,202.86926 276.375,206.875 C 275.8299,205.9392 275.21121,205.05454 274.46875,204.3125 C 272.15936,202.00463 268.6382,200.46883 265.28125,200.46875 L 264.53125,200.46875 C 264.31633,197.36766 262.94512,194.22648 260.78125,192.0625 C 258.42837,189.70974 254.86316,188.2501 251.59375,188.25 C 248.32442,188.2501 244.8092,189.64456 242.40625,192 C 240.10754,194.25343 238.7783,197.58879 238.625,200.71875 C 237.89803,200.5839 237.16302,200.46877 236.4375,200.46875 L 235.625,200.46875 C 235.41562,197.43356 234.16715,194.26101 231.96875,192.0625 C 229.57356,189.66743 226.01941,188.2501 222.75,188.25 C 219.48067,188.2501 215.95481,189.68561 213.59375,192 C 211.19858,194.348 209.65625,197.90683 209.65625,201.28125 L 209.65625,205.4375 C 205.35213,202.33138 200.1939,200.56254 194.84375,200.5625 C 188.69915,200.56255 182.81294,202.92076 178.21875,207 C 177.66397,206.05488 177.17924,205.05383 176.4375,204.3125 C 174.12809,202.00461 170.60695,200.46883 167.25,200.46875 L 166.4375,200.46875 C 166.22812,197.43356 164.97965,194.26101 162.78125,192.0625 C 160.38606,189.66743 156.83191,188.2501 153.5625,188.25 C 150.29317,188.2501 146.76731,189.68561 144.40625,192 C 142.15144,194.2104 140.69662,197.4963 140.53125,200.6875 C 139.83569,200.56393 139.13118,200.46877 138.4375,200.46875 L 137.6875,200.46875 C 137.47258,197.36766 136.10137,194.22648 133.9375,192.0625 C 131.58462,189.70974 128.01941,188.2501 124.75,188.25 z" />
  <path
     id="path3284"
     style="font-size:72px;font-style:normal;font-variant:normal;font-weight:800;font-stretch:normal;text-align:center;line-height:125%;writing-mode:lr-tb;text-anchor:middle;fill:#22ccff;fill-opacity:1;stroke:none;stroke-width:1px;stroke-linecap:butt;stroke-linejoin:miter;stroke-opacity:1;font-family:PicoBlackAl;-inkscape-font-specification:PicoBlackAl Ultra-Bold"
     d="M 125.23885,332.00214 C 125.60663,333.86803 125.43903,334.93177 124.23936,336.13147 C 123.03961,337.33118 121.59967,337.93103 119.91953,337.93103 L 103.0097,337.93103 C 98.017501,337.93103 93.721485,336.14319 90.121642,332.5675 C 86.521785,328.99183 84.72186,324.68373 84.721862,319.64319 C 84.72186,314.60268 86.5097,310.30667 90.085387,306.75513 C 93.66106,303.20365 97.944991,301.42789 102.93719,301.42786 C 107.97769,301.42789 112.29787,303.20365 115.89776,306.75513 C 119.49757,310.30667 121.2975,314.60268 121.29754,319.64319 C 121.29754,319.64319 121.56287,323.13181 122.52528,326.2608 C 123.49839,329.42458 124.86385,330.09959 125.23885,332.00214 z M 109.33795,316.83571 C 107.86145,313.62811 104.68985,313.66665 103.0097,313.66663 C 101.32951,313.66665 99.901654,314.25478 98.726134,315.43103 C 97.550583,316.60732 96.962815,318.01137 96.962829,319.64319 C 96.962815,321.32338 97.550583,322.75124 98.726134,323.92676 C 99.901654,325.10231 101.30534,325.69008 102.93719,325.69006 L 110.94833,325.90558 C 110.94833,325.90558 110.4183,319.18272 109.33795,316.83571 z"
     sodipodi:nodetypes="csccsssssczzcssssccs" />
  <path
     style="font-size:72px;font-style:normal;font-variant:normal;font-weight:800;font-stretch:normal;text-align:center;line-height:125%;writing-mode:lr-tb;text-anchor:middle;fill:#22ccff;fill-opacity:1;stroke:none;stroke-width:1px;stroke-linecap:butt;stroke-linejoin:miter;stroke-opacity:1;font-family:PicoBlackAl;-inkscape-font-specification:PicoBlackAl Ultra-Bold"
     d="M 150.64202,331.81165 C 150.64199,333.49183 150.04177,334.93177 148.84136,336.13147 C 147.6409,337.33118 146.20059,337.93103 144.52044,337.93103 L 143.00872,337.93103 C 137.96964,337.93103 133.64982,336.14319 130.04925,332.5675 C 126.44866,328.99183 124.64837,324.68373 124.64837,319.64319 L 124.64837,295.23596 C 124.64837,293.55583 125.26067,292.11552 126.48528,290.91504 C 127.70989,289.71465 129.16155,289.11443 130.84026,289.11438 C 132.52043,289.11443 133.96073,289.71465 135.16118,290.91504 C 136.36161,292.11552 136.96183,293.55583 136.96184,295.23596 L 136.96184,301.35535 L 144.52044,301.35535 C 146.20059,301.35538 147.6409,301.95524 148.84136,303.15491 C 150.04177,304.35465 150.64199,305.79459 150.64202,307.47473 C 150.64199,309.15494 150.04177,310.59488 148.84136,311.79456 C 147.6409,312.99429 146.20059,313.59414 144.52044,313.59412 L 136.88933,313.59412 L 136.88933,319.64319 C 136.88932,321.27504 137.48917,322.69081 138.68889,323.8905 C 139.88859,325.09022 141.30436,325.69008 142.93621,325.69006 L 144.52044,325.69006 C 146.20059,325.69008 147.6409,326.29029 148.84136,327.49072 C 150.04177,328.69117 150.64199,330.13148 150.64202,331.81165 L 150.64202,331.81165 z"
     id="path3280" />
  <path
     style="font-size:72px;font-style:normal;font-variant:normal;font-weight:800;font-stretch:normal;text-align:center;line-height:125%;writing-mode:lr-tb;text-anchor:middle;fill:#22ccff;fill-opacity:1;stroke:none;stroke-width:1px;stroke-linecap:butt;stroke-linejoin:miter;stroke-opacity:1;font-family:PicoBlackAl;-inkscape-font-specification:PicoBlackAl Ultra-Bold"
     d="M 179.47014,331.81165 C 179.47012,333.49183 178.8699,334.93177 177.66949,336.13147 C 176.46902,337.33118 175.02872,337.93103 173.34856,337.93103 L 171.83684,337.93103 C 166.79777,337.93103 162.47795,336.14319 158.87737,332.5675 C 155.27678,328.99183 153.47649,324.68373 153.47649,319.64319 L 153.47649,295.23596 C 153.47649,293.55583 154.0888,292.11552 155.31341,290.91504 C 156.53801,289.71465 157.98967,289.11443 159.66839,289.11438 C 161.34855,289.11443 162.78886,289.71465 163.98931,290.91504 C 165.18974,292.11552 165.78996,293.55583 165.78997,295.23596 L 165.78997,301.35535 L 173.34856,301.35535 C 175.02872,301.35538 176.46902,301.95524 177.66949,303.15491 C 178.8699,304.35465 179.47012,305.79459 179.47014,307.47473 C 179.47012,309.15494 178.8699,310.59488 177.66949,311.79456 C 176.46902,312.99429 175.02872,313.59414 173.34856,313.59412 L 165.71746,313.59412 L 165.71746,319.64319 C 165.71745,321.27504 166.3173,322.69081 167.51702,323.8905 C 168.71671,325.09022 170.13248,325.69008 171.76433,325.69006 L 173.34856,325.69006 C 175.02872,325.69008 176.46902,326.29029 177.66949,327.49072 C 178.8699,328.69117 179.47012,330.13148 179.47014,331.81165 L 179.47014,331.81165 z"
     id="path3278" />
  <path
     style="font-size:72px;font-style:normal;font-variant:normal;font-weight:800;font-stretch:normal;text-align:center;line-height:125%;writing-mode:lr-tb;text-anchor:middle;fill:#22ccff;fill-opacity:1;stroke:none;stroke-width:1px;stroke-linecap:butt;stroke-linejoin:miter;stroke-opacity:1;font-family:PicoBlackAl;-inkscape-font-specification:PicoBlackAl Ultra-Bold"
     d="M 245.60977,331.81165 C 245.60975,333.49183 245.00953,334.93177 243.80912,336.13147 C 242.60865,337.33118 241.16835,337.93103 239.48819,337.93103 L 237.97647,337.93103 C 232.9374,337.93103 228.61758,336.14319 225.017,332.5675 C 221.41641,328.99183 219.61612,324.68373 219.61612,319.64319 L 219.61612,295.23596 C 219.61612,293.55583 220.22843,292.11552 221.45304,290.91504 C 222.67764,289.71465 224.1293,289.11443 225.80802,289.11438 C 227.48818,289.11443 228.92849,289.71465 230.12894,290.91504 C 231.32937,292.11552 231.92959,293.55583 231.9296,295.23596 L 231.9296,301.35535 L 239.48819,301.35535 C 241.16835,301.35538 242.60865,301.95524 243.80912,303.15491 C 245.00953,304.35465 245.60975,305.79459 245.60977,307.47473 C 245.60975,309.15494 245.00953,310.59488 243.80912,311.79456 C 242.60865,312.99429 241.16835,313.59414 239.48819,313.59412 L 231.85709,313.59412 L 231.85709,319.64319 C 231.85708,321.27504 232.45693,322.69081 233.65665,323.8905 C 234.85634,325.09022 236.27211,325.69008 237.90396,325.69006 L 239.48819,325.69006 C 241.16835,325.69008 242.60865,326.29029 243.80912,327.49072 C 245.00953,328.69117 245.60975,330.13148 245.60977,331.81165 L 245.60977,331.81165 z"
     id="path3272" />
  <path
     style="font-size:72px;font-style:normal;font-variant:normal;font-weight:800;font-stretch:normal;text-align:center;line-height:125%;writing-mode:lr-tb;text-anchor:middle;fill:#22ccff;fill-opacity:1;stroke:none;stroke-width:1px;stroke-linecap:butt;stroke-linejoin:miter;stroke-opacity:1;font-family:PicoBlackAl;-inkscape-font-specification:PicoBlackAl Ultra-Bold"
     d="M 274.4379,331.81165 C 274.43787,333.49183 273.83765,334.93177 272.63724,336.13147 C 271.43678,337.33118 269.99647,337.93103 268.31632,337.93103 L 266.8046,337.93103 C 261.76552,337.93103 257.4457,336.14319 253.84513,332.5675 C 250.24454,328.99183 248.44425,324.68373 248.44425,319.64319 L 248.44425,295.23596 C 248.44425,293.55583 249.05655,292.11552 250.28116,290.91504 C 251.50577,289.71465 252.95743,289.11443 254.63614,289.11438 C 256.31631,289.11443 257.75661,289.71465 258.95706,290.91504 C 260.15749,292.11552 260.75771,293.55583 260.75772,295.23596 L 260.75772,301.35535 L 268.31632,301.35535 C 269.99647,301.35538 271.43678,301.95524 272.63724,303.15491 C 273.83765,304.35465 274.43787,305.79459 274.4379,307.47473 C 274.43787,309.15494 273.83765,310.59488 272.63724,311.79456 C 271.43678,312.99429 269.99647,313.59414 268.31632,313.59412 L 260.68521,313.59412 L 260.68521,319.64319 C 260.6852,321.27504 261.28505,322.69081 262.48477,323.8905 C 263.68447,325.09022 265.10024,325.69008 266.73209,325.69006 L 268.31632,325.69006 C 269.99647,325.69008 271.43678,326.29029 272.63724,327.49072 C 273.83765,328.69117 274.43787,330.13148 274.4379,331.81165 L 274.4379,331.81165 z"
     id="path3270" />
  <path
     style="font-size:72px;font-style:normal;font-variant:normal;font-weight:800;font-stretch:normal;text-align:center;line-height:125%;writing-mode:lr-tb;text-anchor:middle;fill:#22ccff;fill-opacity:1;stroke:none;stroke-width:1px;stroke-linecap:butt;stroke-linejoin:miter;stroke-opacity:1;font-family:PicoBlackAl;-inkscape-font-specification:PicoBlackAl Ultra-Bold"
     d="M 350.44106,331.81165 C 350.44102,333.49183 349.8408,334.93177 348.6404,336.13147 C 347.43992,337.33118 346.00035,337.93103 344.32167,337.93103 L 332.51357,337.93103 C 327.47302,337.93103 323.15284,336.14319 319.55299,332.5675 C 315.95314,328.99183 314.15321,324.68373 314.15321,319.64319 C 314.15321,314.60268 315.94105,310.30667 319.51674,306.75513 C 323.09241,303.20365 327.40051,301.42789 332.44106,301.42786 L 344.24916,301.42786 C 345.9293,301.42789 347.38133,302.02775 348.60524,303.22742 C 349.82908,304.42716 350.44102,305.8671 350.44106,307.54724 C 350.44102,309.22745 349.8408,310.66739 348.6404,311.86707 C 347.43992,313.0668 346.00035,313.66665 344.32167,313.66663 L 332.51357,313.66663 C 330.83337,313.66665 329.39307,314.25478 328.19264,315.43103 C 326.99219,316.60732 326.39197,318.01137 326.39198,319.64319 C 326.39197,321.27504 326.99219,322.69081 328.19264,323.8905 C 329.39307,325.09022 330.8092,325.69008 332.44106,325.69006 L 344.24916,325.69006 C 345.9293,325.69008 347.38133,326.29029 348.60524,327.49072 C 349.82908,328.69117 350.44102,330.13148 350.44106,331.81165 L 350.44106,331.81165 z"
     id="path3264" />
  <path
     style="font-size:72px;font-style:normal;font-variant:normal;font-weight:800;font-stretch:normal;text-align:center;line-height:125%;writing-mode:lr-tb;text-anchor:middle;fill:#22ccff;fill-opacity:1;stroke:none;stroke-width:1px;stroke-linecap:butt;stroke-linejoin:miter;stroke-opacity:1;font-family:PicoBlackAl;-inkscape-font-specification:PicoBlackAl Ultra-Bold"
     d="M 389.26674,331.73914 C 389.2667,333.41932 388.66685,334.85926 387.46718,336.05896 C 386.26744,337.25867 384.8275,337.85852 383.14735,337.85852 C 381.03502,337.85852 379.35485,336.97083 378.10683,335.19543 L 371.55458,325.83508 C 371.55456,325.8351 369.46643,325.8351 365.29018,325.83508 L 365.29018,331.81165 C 365.29016,333.49183 364.69031,334.93177 363.49062,336.13147 C 362.2909,337.33118 360.85096,337.93103 359.17079,337.93103 C 357.49061,337.93103 356.05067,337.33118 354.85097,336.13147 C 353.65126,334.93177 353.05141,333.49183 353.05141,331.81165 L 353.05141,295.23596 C 353.05141,293.55583 353.65126,292.11552 354.85097,290.91504 C 356.05067,289.71465 357.49061,289.11443 359.17079,289.11438 C 360.85096,289.11443 362.2909,289.71465 363.49062,290.91504 C 364.69031,292.11552 365.29016,293.55583 365.29018,295.23596 L 365.29018,313.59412 L 370.9789,313.59412 C 373.52331,313.59414 375.25109,312.53872 376.16225,310.42786 C 376.7379,308.50748 377.33776,306.58707 377.96181,304.66663 C 378.87438,302.55436 380.60289,301.49821 383.14735,301.49817 C 384.8275,301.49821 386.26744,302.09842 387.46718,303.29883 C 388.66685,304.4993 389.2667,305.93961 389.26674,307.61975 C 389.2667,312.99575 387.25035,317.50747 383.21767,321.15491 L 388.18568,328.21033 C 388.90635,329.21815 389.2667,330.39442 389.26674,331.73914 L 389.26674,331.73914 z"
     id="text2449" />
  <path
     d="M 124.75,282.21875 C 121.48067,282.21885 117.96545,283.61331 115.5625,285.96875 C 113.12544,288.35781 111.65625,291.9611 111.65625,295.25 L 111.65625,299.40625 C 107.35213,296.30013 102.1939,294.53129 96.84375,294.53125 C 90.632089,294.5313 84.677077,296.93014 80.0625,301.09375 C 79.473679,300.04046 78.801836,299.03494 77.96875,298.21875 C 75.609724,295.90783 72.138191,294.43758 68.78125,294.4375 C 65.424304,294.43758 61.903164,295.97326 59.59375,298.28125 C 58.320223,299.55401 57.32788,301.19155 56.65625,302.96875 C 55.984636,301.19203 54.990815,299.55336 53.71875,298.28125 C 51.408237,295.97083 47.888196,294.43758 44.53125,294.4375 C 41.174304,294.43758 37.653159,295.97331 35.34375,298.28125 C 33.030718,300.59293 31.499996,304.1137 31.5,307.46875 L 31.5,320.71875 C 31.499997,325.89838 33.12255,330.99142 36.15625,335.25 C 38.181757,338.09335 40.805829,340.41053 43.75,342.1875 L 43.75,344.0625 C 43.749973,347.33406 45.21216,350.89823 47.5625,353.25 C 49.874179,355.56311 53.394982,357.09373 56.75,357.09375 C 60.105018,357.09373 63.615866,355.60282 65.96875,353.25 C 68.321559,350.89712 69.781199,347.33197 69.78125,344.0625 L 69.78125,342.15625 C 72.715041,340.36963 75.325584,338.06298 77.3125,335.21875 C 77.916263,335.97512 78.463423,336.78058 79.15625,337.46875 C 83.875835,342.15667 90.256925,344.84375 96.90625,344.84375 L 109.09375,344.84375 C 112.45079,344.84375 115.97073,343.31047 118.28125,341 C 119.03889,340.24234 119.66684,339.33372 120.21875,338.375 C 124.81894,342.45184 130.71252,344.84375 136.90625,344.84375 L 138.4375,344.84375 C 141.79454,344.84375 145.31558,343.30798 147.625,341 C 148.30348,340.32192 148.89136,339.53078 149.40625,338.6875 C 153.96716,342.57605 159.71765,344.84375 165.75,344.84375 L 167.25,344.84375 C 170.60704,344.84375 174.12808,343.30798 176.4375,341 C 177.17927,340.25867 177.66395,339.25761 178.21875,338.3125 C 182.83276,342.43135 188.74343,344.84375 194.9375,344.84375 L 207.09375,344.84375 C 210.45079,344.84375 213.97073,343.31047 216.28125,341 C 217.03215,340.24908 217.5346,339.24077 218.09375,338.28125 C 222.72409,342.43558 228.68901,344.84375 234.9375,344.84375 L 236.4375,344.84375 C 239.79454,344.84375 243.31558,343.30798 245.625,341 C 246.30496,340.32044 246.72546,339.38523 247.25,338.53125 C 251.82411,342.50744 257.63856,344.84375 263.75,344.84375 L 265.28125,344.84375 C 268.63829,344.84375 272.15931,343.30802 274.46875,341 C 275.21121,340.25798 275.82988,339.37328 276.375,338.4375 C 280.95705,342.47398 286.80245,344.84375 292.9375,344.84375 L 305.125,344.84375 C 308.48204,344.84375 312.00196,343.3105 314.3125,341 C 315.00621,340.30627 315.60247,339.49085 316.125,338.625 C 320.6812,342.53754 326.44031,344.84375 332.5,344.84375 L 344.3125,344.84375 C 346.96341,344.84375 349.57143,343.72391 351.75,342.1875 C 353.92538,343.71557 356.51403,344.84375 359.15625,344.84375 C 362.51329,344.84375 366.02211,343.35291 368.375,341 C 369.47151,339.90348 370.35143,338.53309 371,337.0625 L 372.4375,339.125 C 372.43748,339.13542 372.43748,339.14583 372.4375,339.15625 C 374.76495,342.4672 379.12664,344.75 383.15625,344.75 C 386.42777,344.75 389.99087,343.29034 392.34375,340.9375 C 394.65419,338.62701 396.18746,335.10705 396.1875,331.75 C 396.18742,329.12998 395.35813,326.38021 393.8125,324.21875 L 391.875,321.46875 C 394.59721,317.38887 396.18748,312.61678 396.1875,307.625 C 396.18742,304.26811 394.65169,300.74694 392.34375,298.4375 C 390.03211,296.12459 386.5112,294.59383 383.15625,294.59375 C 379.04314,294.59381 374.3313,297.27233 372.1875,301.0625 L 372.1875,295.25 C 372.18748,291.97853 370.76755,288.42535 368.375,286.03125 C 365.97872,283.63363 362.42566,282.21885 359.15625,282.21875 C 355.88684,282.21885 352.3227,283.67599 349.96875,286.03125 C 347.65188,288.34963 346.30457,291.75363 346.21875,294.9375 C 345.55694,294.82759 344.90189,294.53127 344.25,294.53125 L 332.4375,294.53125 C 325.79072,294.5313 319.38006,297.15193 314.65625,301.84375 C 313.91609,302.57891 313.32465,303.43685 312.6875,304.25 C 312.04529,303.43237 311.43639,302.58259 310.6875,301.84375 C 305.93152,297.15171 299.52176,294.5313 292.875,294.53125 C 286.78929,294.5313 280.95052,296.83801 276.375,300.84375 C 275.8299,299.90795 275.21121,299.02329 274.46875,298.28125 C 272.15936,295.97338 268.6382,294.43758 265.28125,294.4375 L 264.53125,294.4375 C 264.31633,291.33641 262.94512,288.19523 260.78125,286.03125 C 258.42837,283.67849 254.86316,282.21885 251.59375,282.21875 C 248.32442,282.21885 244.8092,283.61331 242.40625,285.96875 C 240.10754,288.22218 238.7783,291.55754 238.625,294.6875 C 237.89803,294.55265 237.16302,294.43752 236.4375,294.4375 L 235.625,294.4375 C 235.41562,291.40231 234.16715,288.22976 231.96875,286.03125 C 229.57356,283.63618 226.01941,282.21885 222.75,282.21875 C 219.48067,282.21885 215.95481,283.65436 213.59375,285.96875 C 211.19858,288.31675 209.65625,291.87558 209.65625,295.25 L 209.65625,299.40625 C 205.35213,296.30013 200.1939,294.53129 194.84375,294.53125 C 188.69915,294.5313 182.81294,296.88951 178.21875,300.96875 C 177.66397,300.02363 177.17924,299.02258 176.4375,298.28125 C 174.12809,295.97336 170.60695,294.43758 167.25,294.4375 L 166.4375,294.4375 C 166.22812,291.40231 164.97965,288.22976 162.78125,286.03125 C 160.38606,283.63618 156.83191,282.21885 153.5625,282.21875 C 150.29317,282.21885 146.76731,283.65436 144.40625,285.96875 C 142.15144,288.17915 140.69662,291.46505 140.53125,294.65625 C 139.83569,294.53268 139.13118,294.43752 138.4375,294.4375 L 137.6875,294.4375 C 137.47258,291.33641 136.10137,288.19523 133.9375,286.03125 C 131.58462,283.67849 128.01941,282.21885 124.75,282.21875 z"
     inkscape:href="#text2449"
     id="path3253"
     style="font-size:72px;font-style:normal;font-variant:normal;font-weight:800;font-stretch:normal;text-align:center;line-height:125%;writing-mode:lr-tb;text-anchor:middle;fill:#ffffff;fill-opacity:1;stroke:none;stroke-width:1px;stroke-linecap:butt;stroke-linejoin:miter;stroke-opacity:1;font-family:PicoBlackAl;-inkscape-font-specification:PicoBlackAl Ultra-Bold"
     xlink:href="#text2449"
     inkscape:original="M 359.15625 289.125 C 357.47607 289.12505 356.04344 289.70586 354.84375 290.90625 C 353.64404 292.10673 353.06249 293.56987 353.0625 295.25 L 353.0625 331.8125 C 353.0625 333.49268 353.64403 334.9253 354.84375 336.125 C 356.04345 337.32471 357.47608 337.9375 359.15625 337.9375 C 360.83642 337.9375 362.30027 337.32471 363.5 336.125 C 364.69969 334.9253 365.28122 333.49268 365.28125 331.8125 L 365.28125 325.84375 C 369.4575 325.84377 371.56249 325.84377 371.5625 325.84375 L 378.09375 335.1875 C 379.34177 336.9629 381.04393 337.84375 383.15625 337.84375 C 384.8364 337.84375 386.269 337.26221 387.46875 336.0625 C 388.66842 334.8628 389.2812 333.43018 389.28125 331.75 C 389.28121 330.40528 388.90818 329.22657 388.1875 328.21875 L 383.21875 321.15625 C 387.25143 317.50881 389.2812 313.001 389.28125 307.625 C 389.28121 305.94486 388.66841 304.51297 387.46875 303.3125 C 386.26901 302.11209 384.83641 301.50004 383.15625 301.5 C 380.61179 301.50004 378.88131 302.54398 377.96875 304.65625 C 377.3447 306.57669 376.73189 308.51712 376.15625 310.4375 C 375.24509 312.54836 373.51315 313.59377 370.96875 313.59375 L 365.28125 313.59375 L 365.28125 295.25 C 365.28123 293.56987 364.69968 292.10673 363.5 290.90625 C 362.30028 289.70586 360.83643 289.12505 359.15625 289.125 z "
     inkscape:radius="6.8965516"
     sodipodi:type="inkscape:offset"
     transform="translate(-3.4482759,-109.48276)" />
  <text
     sodipodi:linespacing="125%"
     id="text3255"
     y="228.44827"
     x="210.34483"
     style="font-size:72px;font-style:normal;font-variant:normal;font-weight:800;font-stretch:normal;text-align:center;line-height:125%;writing-mode:lr-tb;text-anchor:middle;fill:#22ccff;fill-opacity:1;stroke:none;stroke-width:1px;stroke-linecap:butt;stroke-linejoin:miter;stroke-opacity:1;font-family:PicoBlackAl;-inkscape-font-specification:PicoBlackAl Ultra-Bold"
     xml:space="preserve"><tspan
       y="228.44827"
       x="210.34483"
       id="tspan3257"
       sodipodi:role="line">yattattack</tspan></text>
  <path
     id="path3286"
     style="font-size:72px;font-style:normal;font-variant:normal;font-weight:800;font-stretch:normal;text-align:center;line-height:125%;writing-mode:lr-tb;text-anchor:middle;fill:#22ccff;fill-opacity:1;stroke:none;stroke-width:1px;stroke-linecap:butt;stroke-linejoin:miter;stroke-opacity:1;font-family:PicoBlackAl;-inkscape-font-specification:PicoBlackAl Ultra-Bold"
     d="M 57.958834,333.96879 L 70.028686,333.96879 C 70.028686,335.65613 69.447685,337.08817 68.268247,338.27208 C 67.088809,339.45063 65.648715,340.03252 63.964953,340.03252 L 51.837486,340.03252 C 50.155512,340.03252 48.708935,340.64705 47.506248,341.84886 C 46.302668,343.05063 45.717867,344.49811 45.717867,346.18008 C 45.717867,347.86118 46.302668,349.28427 47.506248,350.48338 C 48.708935,351.68427 50.153724,352.29971 51.837486,352.29971 L 63.964953,352.29971 C 69.013556,352.29971 73.319755,350.51937 76.902778,346.93456 C 80.488483,343.35243 82.295867,339.01917 82.295867,333.96879 C 82.295867,328.91841 82.295748,316.75981 82.295748,316.75981 L 82.295748,307.47473 C 82.29571,305.79459 81.683406,304.35465 80.458834,303.15491 C 79.23419,301.95524 77.782531,301.35538 76.103854,301.35535 C 74.423647,301.35538 72.983341,301.95524 71.782931,303.15491 C 70.582465,304.35465 69.982246,305.79459 69.982272,307.47473 L 69.982272,316.75981 L 69.982272,322.80888 L 64.007906,322.80888 C 62.374587,322.80888 60.958085,322.20904 59.758395,321.00932 C 58.558673,319.80962 57.95882,318.39312 57.958834,316.75981 L 57.958834,307.47473 C 57.95882,305.79459 57.358967,304.35465 56.159274,303.15491 C 54.959556,301.95524 53.519616,301.35538 51.839449,301.35535 C 50.159267,301.35538 48.718961,301.95524 47.518527,303.15491 C 46.318085,304.35465 45.717866,305.79459 45.717867,307.47473 L 45.717867,316.75981 C 45.717867,316.45503 45.904316,320.57531 46.832165,324.35231 C 47.795646,328.27435 52.77591,333.96879 57.958834,333.96879 z"
     sodipodi:nodetypes="ccsccsssccccccssscccssccsssccss" />
  <path
     sodipodi:nodetypes="csccsssssczzcssssccs"
     d="M 220.06644,332.00214 C 220.43422,333.86803 220.26662,334.93177 219.06695,336.13147 C 217.8672,337.33118 216.42726,337.93103 214.74712,337.93103 L 197.83729,337.93103 C 192.84509,337.93103 188.54907,336.14319 184.94923,332.5675 C 181.34937,328.99183 179.54945,324.68373 179.54945,319.64319 C 179.54945,314.60268 181.33729,310.30667 184.91297,306.75513 C 188.48865,303.20365 192.77258,301.42789 197.76478,301.42786 C 202.80528,301.42789 207.12546,303.20365 210.72535,306.75513 C 214.32516,310.30667 216.12509,314.60268 216.12513,319.64319 C 216.12513,319.64319 216.39046,323.13181 217.35287,326.2608 C 218.32598,329.42458 219.69144,330.09959 220.06644,332.00214 z M 204.16554,316.83571 C 202.68904,313.62811 199.51744,313.66665 197.83729,313.66663 C 196.1571,313.66665 194.72924,314.25478 193.55372,315.43103 C 192.37817,316.60732 191.7904,318.01137 191.79042,319.64319 C 191.7904,321.32338 192.37817,322.75124 193.55372,323.92676 C 194.72924,325.10231 196.13293,325.69008 197.76478,325.69006 L 205.77592,325.90558 C 205.77592,325.90558 205.24589,319.18272 204.16554,316.83571 z"
     style="font-size:72px;font-style:normal;font-variant:normal;font-weight:800;font-stretch:normal;text-align:center;line-height:125%;writing-mode:lr-tb;text-anchor:middle;fill:#22ccff;fill-opacity:1;stroke:none;stroke-width:1px;stroke-linecap:butt;stroke-linejoin:miter;stroke-opacity:1;font-family:PicoBlackAl;-inkscape-font-specification:PicoBlackAl Ultra-Bold"
     id="path3363" />
  <path
     id="path3365"
     style="font-size:72px;font-style:normal;font-variant:normal;font-weight:800;font-stretch:normal;text-align:center;line-height:125%;writing-mode:lr-tb;text-anchor:middle;fill:#22ccff;fill-opacity:1;stroke:none;stroke-width:1px;stroke-linecap:butt;stroke-linejoin:miter;stroke-opacity:1;font-family:PicoBlackAl;-inkscape-font-specification:PicoBlackAl Ultra-Bold"
     d="M 314.89403,332.00214 C 315.26181,333.86803 315.09421,334.93177 313.89454,336.13147 C 312.69479,337.33118 311.25485,337.93103 309.57471,337.93103 L 292.66488,337.93103 C 287.67268,337.93103 283.37666,336.14319 279.77682,332.5675 C 276.17696,328.99183 274.37704,324.68373 274.37704,319.64319 C 274.37704,314.60268 276.16488,310.30667 279.74056,306.75513 C 283.31624,303.20365 287.60017,301.42789 292.59237,301.42786 C 297.63287,301.42789 301.95305,303.20365 305.55294,306.75513 C 309.15275,310.30667 310.95268,314.60268 310.95272,319.64319 C 310.95272,319.64319 311.21805,323.13181 312.18046,326.2608 C 313.15357,329.42458 314.51903,330.09959 314.89403,332.00214 z M 298.99313,316.83571 C 297.51663,313.62811 294.34503,313.66665 292.66488,313.66663 C 290.98469,313.66665 289.55683,314.25478 288.38131,315.43103 C 287.20576,316.60732 286.61799,318.01137 286.61801,319.64319 C 286.61799,321.32338 287.20576,322.75124 288.38131,323.92676 C 289.55683,325.10231 290.96052,325.69008 292.59237,325.69006 L 300.60351,325.90558 C 300.60351,325.90558 300.07348,319.18272 298.99313,316.83571 z"
     sodipodi:nodetypes="csccsssssczzcssssccs" />
</svg>
