<?xml version="1.0" encoding="UTF-8" standalone="no"?>
<svg
   xmlns:dc="http://purl.org/dc/elements/1.1/"
   xmlns:cc="http://creativecommons.org/ns#"
   xmlns:rdf="http://www.w3.org/1999/02/22-rdf-syntax-ns#"
   xmlns:svg="http://www.w3.org/2000/svg"
   xmlns="http://www.w3.org/2000/svg"
   xmlns:xlink="http://www.w3.org/1999/xlink"
   xmlns:sodipodi="http://sodipodi.sourceforge.net/DTD/sodipodi-0.dtd"
   xmlns:inkscape="http://www.inkscape.org/namespaces/inkscape"
   width="425"
   height="425"
   id="svg94"
   sodipodi:version="0.32"
   inkscape:version="0.46"
   sodipodi:docname="yattattack.svg"
   sodipodi:docbase="/var/www/html/svg_gallery/svg/animals"
   inkscape:output_extension="org.inkscape.output.svg.inkscape"
   version="1.0"
   inkscape:export-filename="C:\Documents and Settings\Stuart P. Bentley\My Documents\bzr\yattattack\192.png"
   inkscape:export-xdpi="40.658825"
   inkscape:export-ydpi="40.658825">
  <metadata
     id="metadata101" />
  <defs
     id="defs99">
    <inkscape:perspective
       sodipodi:type="inkscape:persp3d"
       inkscape:vp_x="-50 : 600 : 1"
       inkscape:vp_y="0 : 1000 : 0"
       inkscape:vp_z="700 : 600 : 1"
       inkscape:persp3d-origin="300 : 400 : 1"
       id="perspective2392" />
    <inkscape:perspective
       id="perspective3219"
       inkscape:persp3d-origin="150 : 25 : 1"
       inkscape:vp_z="300 : 37.5 : 1"
       inkscape:vp_y="0 : 1000 : 0"
       inkscape:vp_x="0 : 37.5 : 1"
       sodipodi:type="inkscape:persp3d" />
    <inkscape:perspective
       id="perspective3289"
       inkscape:persp3d-origin="150 : 25 : 1"
       inkscape:vp_z="300 : 37.5 : 1"
       inkscape:vp_y="0 : 1000 : 0"
       inkscape:vp_x="0 : 37.5 : 1"
       sodipodi:type="inkscape:persp3d" />
  </defs>
  <sodipodi:namedview
     inkscape:window-height="712"
     inkscape:window-width="1024"
     inkscape:pageshadow="2"
     inkscape:pageopacity="0"
     guidetolerance="10.0"
     gridtolerance="10.0"
     objecttolerance="10.0"
     borderopacity="1.0"
     bordercolor="#666666"
     pagecolor="#22ccff"
     id="base"
     inkscape:zoom="1.16"
     inkscape:cx="176.19933"
     inkscape:cy="206.82296"
     inkscape:window-x="0"
     inkscape:window-y="22"
     inkscape:current-layer="svg94"
     showgrid="false" />
  <path
     sodipodi:type="inkscape:offset"
     inkscape:radius="6.7329741"
     inkscape:original="M 42 47.71875 L 49 68.71875 C 39.2035 68.799848 34.6797 74.3836 26 77.0625 C 22.0984 78.266699 17.91785 77.04495 14.03125 78.15625 C 10.89335 79.053348 9.07871 81.43265 9.25 84.71875 C 10.00331 99.172049 33.7464 99.204455 44 100.71875 C 44.8649 111.29395 50.1352 119.71595 50 130.71875 C 49.887799 139.85775 44.00345 148.69375 47.46875 157.71875 C 51.511051 168.24675 67.32585 171.25475 68.65625 182.71875 C 70.304851 196.92475 61.01225 211.23175 58.46875 224.71875 C 56.483248 235.24675 57.4373 255.20375 71 256.71875 L 68 249.71875 L 74 251.71875 L 71 221.71875 L 72 221.71875 C 72.7658 231.34175 75.2738 244.90475 86 247.71875 L 85 243.71875 L 91 242.71875 L 88 235.71875 L 91 236.71875 C 91.9351 230.58075 84.2503 231.2935 82.5 225.6875 C 79.292399 215.4145 85.9499 207.39375 90 198.71875 L 91 198.71875 C 93.7974 204.06275 98.3964 205.9225 102.5625 209.9375 C 113.4635 220.4445 124.194 231.57975 140 233.71875 C 141.956 257.66175 152.936 280.05775 149 304.71875 C 134.882 304.71875 109.595 299.07275 102 314.71875 L 151 315.71875 C 140.54 329.04775 114.562 320.8035 100 319.8125 C 92.5033 319.3015 81.4701 320.37475 79 328.71875 C 100.724 327.45275 122.215 332.45975 144 332.71875 C 150.404 332.79475 162.28475 335.451 167.71875 331.125 C 172.24576 327.522 171 319.80075 171 314.71875 C 196.739 314.64775 186.879 293.02975 191 275.71875 C 204.44 279.72875 218.377 278.25675 232 275.71875 C 234.766 285.32175 241.5005 294.16375 246.5625 302.71875 C 254.9425 316.88075 264.345 333.2875 278 343.0625 C 286.811 349.36949 298.881 352.11825 309 355.65625 C 343.397 367.68426 382.094 369.18075 418 373.71875 C 417.295 364.67075 393.892 363.239 386 362.125 C 363.792 358.99199 341.862 352.03675 321 344.09375 C 311.237 340.37674 299.71625 337.23 292.15625 329.625 C 268.29726 305.625 260.46125 267.35575 259.03125 234.71875 C 258.24825 216.82375 264.186 196.28475 254 179.71875 C 233.643 146.60875 189.005 124.961 151 120.875 C 131.922 118.8239 112.45 123.83595 94 116.59375 C 79.113 110.74995 82.5625 89.03575 70 82.71875 C 73.0593 71.719848 65.468 67.76595 60.6875 58.71875 C 58.8126 55.170348 56.6596 45.2511 52 51.71875 L 42 47.71875 z M 174 281.71875 L 171 300.71875 L 170 300.71875 C 167.654 293.31775 167.718 287.10475 174 281.71875 z "
     xlink:href="#path96"
     style="fill:#ffffff;fill-opacity:1;stroke:none"
     id="path3300"
     inkscape:href="#path96"
     d="M 41.875,41 C 39.739667,41.045668 37.752621,42.101662 36.519961,43.845876 C 35.287301,45.590089 34.955216,47.815667 35.625,49.84375 L 40.15625,63.4375 C 37.88103,64.150107 35.806752,65.007816 34.03125,65.90625 C 30.224351,67.832604 27.395216,69.577102 24,70.625 C 22.619698,71.05102 18.555209,69.866774 12.1875,71.6875 C 6.6840694,73.260882 2.2224859,79.139039 2.53125,85.0625 C 2.8152604,90.511635 5.659495,95.288588 9.28125,98.28125 C 12.903005,101.27391 17.090467,102.91385 21.28125,104.0625 C 27.483852,105.76257 33.405924,106.36088 38.15625,106.84375 C 39.905907,116.24114 43.372068,123.23412 43.28125,130.625 C 43.24256,133.7764 41.992063,137.82891 40.84375,142.71875 C 39.695437,147.60859 38.734151,153.73552 41.1875,160.125 C 44.184914,167.93164 50.589745,171.88811 55.03125,175.25 C 59.472755,178.61189 61.64794,180.7356 61.96875,183.5 C 63.223708,194.31397 54.780012,207.89912 51.84375,223.46875 C 50.671014,229.68711 50.325616,237.88526 52.375,245.78125 C 53.399692,249.72925 55.06182,253.67479 57.96875,257 C 60.87568,260.32521 65.247191,262.84742 70.25,263.40625 C 72.052967,263.61149 73.862453,263.08035 75.268455,261.9332 C 76.674458,260.78604 77.557952,259.11997 77.71875,257.3125 C 79.309215,256.25689 80.376908,254.57585 80.65625,252.6875 C 81.820824,253.25856 82.950045,253.86951 84.28125,254.21875 C 86.039611,254.68505 87.911832,254.42008 89.471732,253.48414 C 91.031633,252.5482 92.146481,251.02093 92.5625,249.25 C 94.489999,248.78791 96.116004,247.50007 97.007246,245.72963 C 97.898489,243.95918 97.964431,241.886 97.1875,240.0625 L 97.03125,239.6875 C 97.339596,239.0673 97.550409,238.40324 97.65625,237.71875 C 98.093901,234.84601 97.371518,231.53495 95.84375,229.34375 C 94.315982,227.15255 92.573111,226.07635 91.375,225.3125 C 88.978778,223.78481 88.95299,223.73711 88.9375,223.6875 C 87.877267,220.29189 88.338389,217.69095 89.78125,214.125 C 90.251687,212.96234 91.178056,211.31634 91.84375,210.03125 C 94.141409,211.91395 96.331873,213.29409 97.875,214.78125 C 107.59945,224.15423 118.34031,235.36121 133.90625,239.3125 C 136.5315,260.48937 143.86283,279.06363 142.875,297.65625 C 136.98758,297.27064 130.06241,296.67891 122.65625,297.125 C 117.64304,297.42696 112.55668,298.25695 107.78125,300.4375 C 103.00582,302.61805 98.546689,306.40622 95.9375,311.78125 C 95.736273,312.20136 95.579182,312.64121 95.46875,313.09375 C 92.325184,313.16885 89.032718,313.46962 85.625,314.53125 C 80.350039,316.17459 74.518509,320.09954 72.53125,326.8125 C 71.91014,328.91919 72.355497,331.19641 73.724504,332.91389 C 75.093511,334.63137 77.214106,335.57326 79.40625,335.4375 C 99.843478,334.24649 121.14244,339.16686 143.90625,339.4375 C 146.22695,339.46504 151.03066,340.16325 156.03125,340.3125 C 161.03184,340.46175 166.79327,340.47669 171.90625,336.40625 C 176.23882,332.958 177.45458,327.90344 177.78125,324.03125 C 177.87964,322.86503 177.84132,321.87516 177.84375,320.8125 C 182.12888,320.06236 185.82141,318.60985 188.71875,316.1875 C 193.0613,312.55687 194.97066,307.44025 195.75,302.78125 C 196.8531,296.18679 196.51485,289.63574 196.78125,283.90625 C 207.31761,285.67742 217.72127,284.81895 227.6875,283.21875 C 231.35851,291.99139 236.84476,299.50341 240.78125,306.15625 C 249.1247,320.25647 258.72875,337.53214 274.09375,348.53125 C 284.51833,355.99326 297.21125,358.65395 306.78125,362 C 342.49923,374.48993 381.6646,375.92062 417.15625,380.40625 C 419.16842,380.66244 421.18887,379.99792 422.65613,378.59735 C 424.1234,377.19678 424.88112,375.2094 424.71875,373.1875 C 424.31945,368.06293 420.64031,364.45379 417.21875,362.4375 C 413.79719,360.42121 410.07231,359.30489 406.25,358.40625 C 398.60538,356.60896 390.36674,355.95281 386.9375,355.46875 C 365.48724,352.44264 344.02337,345.66226 323.40625,337.8125 C 313.1781,333.9184 302.74101,330.71305 296.9375,324.875 C 275.08185,302.89018 267.14299,266.22984 265.75,234.4375 C 265.04182,218.25239 271.8481,195.86324 259.75,176.1875 C 237.77876,140.452 191.67968,118.48379 151.71875,114.1875 C 130.99755,111.95974 112.43538,116.5799 96.46875,110.3125 C 91.830256,108.49169 89.944745,104.28211 87.4375,97.5 C 85.37185,91.912408 83.160387,84.609644 77.28125,79.59375 C 77.554443,74.463291 76.059487,69.854106 74.03125,66.5 C 71.369486,62.098228 68.516769,59.142714 66.625,55.5625 C 66.400884,55.138341 65.351298,51.415979 63.0625,47.84375 C 61.918101,46.057636 59.912469,43.241933 55.625,42.875 C 53.749232,42.714467 52.175308,43.210178 50.78125,43.96875 L 44.5,41.46875 C 43.664995,41.13908 42.772499,40.979706 41.875,41 z" />
  <path
     style="fill:#33ccff;fill-opacity:1;stroke:none"
     d="M 42,47.714575 L 49,68.714575 C 39.2035,68.795675 34.6797,74.383675 26,77.062575 C 22.0984,78.266775 17.9059,77.036975 14.0193,78.148275 C 10.8814,79.045375 9.0764,81.432275 9.24769,84.718375 C 10.001,99.171675 33.7464,99.200275 44,100.71457 C 44.8649,111.28977 50.1313,119.71177 49.9961,130.71457 C 49.8839,139.85357 44.0031,148.68957 47.4684,157.71457 C 51.5107,168.24257 67.3255,171.25057 68.6559,182.71457 C 70.3045,196.92057 61.0111,211.22757 58.4676,224.71457 C 56.4821,235.24257 57.4373,255.19957 71,256.71457 L 68,249.71457 L 74,251.71457 L 71,221.71457 L 72,221.71457 C 72.7658,231.33757 75.2738,244.90057 86,247.71457 L 85,243.71457 L 91,242.71457 L 88,235.71457 L 91,236.71457 C 91.9351,230.57657 84.2642,231.30157 82.5139,225.69557 C 79.3063,215.42257 85.9499,207.38957 90,198.71457 L 91,198.71457 C 93.7974,204.05857 98.4099,205.90857 102.576,209.92357 C 113.477,220.43057 124.194,231.57557 140,233.71457 C 141.956,257.65757 152.936,280.05357 149,304.71457 C 134.882,304.71457 109.595,299.06857 102,314.71457 L 151,315.71457 C 140.54,329.04357 114.562,320.79557 100,319.80457 C 92.5033,319.29357 81.4701,320.37057 79,328.71457 C 100.724,327.44857 122.215,332.45957 144,332.71857 C 150.404,332.79457 162.287,335.43757 167.721,331.11157 C 172.248,327.50857 171,319.79657 171,314.71457 C 196.739,314.64357 186.879,293.02557 191,275.71457 C 204.44,279.72457 218.377,278.25257 232,275.71457 C 234.766,285.31757 241.486,294.15957 246.548,302.71457 C 254.928,316.87657 264.345,333.30257 278,343.07757 C 286.811,349.38457 298.881,352.11057 309,355.64857 C 343.397,367.67657 382.094,369.17657 418,373.71457 C 417.295,364.66657 393.892,363.25257 386,362.13857 C 363.792,359.00557 341.862,352.02957 321,344.08657 C 311.237,340.36957 299.731,337.21557 292.171,329.61057 C 268.312,305.61057 260.469,267.35157 259.039,234.71457 C 258.256,216.81957 264.192,196.28057 254.006,179.71457 C 233.649,146.60457 189.005,124.97417 151,120.88817 C 131.922,118.83707 112.45,123.83797 94,116.59577 C 79.113,110.75197 82.5625,89.031575 70,82.714575 C 73.0593,71.715675 65.4703,67.761775 60.6898,58.714575 C 58.8149,55.166175 56.6596,45.246925 52,51.714575 L 42,47.714575 M 73,220.71457 L 72,221.71457 L 73,220.71457 M 174,281.71457 L 171,300.71457 L 170,300.71457 C 167.654,293.31357 167.718,287.10057 174,281.71457 z"
     id="path96" />
  <metadata
     id="metadata103">
    <rdf:RDF>
      <cc:Work
         rdf:about="">
        <dc:title>Clipart by Nicu Buculei - contour_chipmunk</dc:title>
        <dc:rights>
          <cc:Agent>
            <dc:title>Nicu Buculei</dc:title>
          </cc:Agent>
        </dc:rights>
        <dc:type
           rdf:resource="http://purl.org/dc/dcmitype/StillImage" />
        <cc:license
           rdf:resource="http://web.resource.org/cc/PublicDomain" />
        <dc:format>image/svg+xml</dc:format>
      </cc:Work>
      <cc:License
         rdf:about="http://web.resource.org/cc/PublicDomain">
        <cc:permits
           rdf:resource="http://web.resource.org/cc/Reproduction" />
        <cc:permits
           rdf:resource="http://web.resource.org/cc/Distribution" />
        <cc:permits
           rdf:resource="http://web.resource.org/cc/DerivativeWorks" />
      </cc:License>
    </rdf:RDF>
  </metadata>
  <path
     style="fill:#33ccff"
     d="M 151.48482,149.02265 C 149.55982,149.02265 147.94482,149.70565 146.60982,151.02265 C 145.27482,152.34165 144.57857,153.96265 144.57857,155.89765 L 144.57857,183.2414 C 144.57857,188.8894 146.59982,193.7354 150.60982,197.7414 C 154.61682,201.7504 159.43257,203.7414 165.07857,203.7414 L 178.64107,203.7414 C 180.52407,203.7414 182.13982,203.05315 183.48482,201.71015 C 184.83082,200.36916 185.48482,198.77765 185.48482,196.89765 C 185.48482,195.01665 184.83082,193.3979 183.48482,192.0539 C 182.13982,190.70989 180.52207,190.02265 178.64107,190.02265 L 165.07857,190.02265 C 163.19557,190.02265 161.58507,189.3719 160.26607,188.0539 C 158.94707,186.7299 158.29732,185.1284 158.29732,183.2414 L 158.29732,176.46015 L 178.64107,176.46015 C 180.52207,176.46015 182.13982,175.7709 183.48482,174.4289 C 184.83082,173.0849 185.48482,171.46515 185.48482,169.58515 C 185.48482,167.70415 184.83582,166.11565 183.48482,164.77265 C 182.13482,163.42865 180.49682,162.7414 178.60982,162.7414 L 158.29732,162.7414 L 158.29732,155.89765 C 158.29732,154.01465 157.63432,152.3949 156.29732,151.0539 C 154.96532,149.7069 153.35282,149.02265 151.48482,149.02265 z"
     id="path3233" />
  <path
     sodipodi:type="inkscape:offset"
     inkscape:radius="6.8507347"
     inkscape:original="M 151.5 149.03125 C 149.575 149.03126 147.96 149.71425 146.625 151.03125 C 145.29 152.35026 144.59375 153.97125 144.59375 155.90625 L 144.59375 183.25 C 144.59375 188.89801 146.615 193.744 150.625 197.75 C 154.632 201.75901 159.44775 203.75 165.09375 203.75 L 178.65625 203.75 C 180.53925 203.75001 182.155 203.06175 183.5 201.71875 C 184.846 200.37777 185.5 198.78625 185.5 196.90625 C 185.5 195.02526 184.846 193.4065 183.5 192.0625 C 182.155 190.7185 180.53725 190.03125 178.65625 190.03125 L 165.09375 190.03125 C 163.21075 190.03126 161.60025 189.3805 160.28125 188.0625 C 158.96225 186.73851 158.3125 185.137 158.3125 183.25 L 158.3125 176.46875 L 178.65625 176.46875 C 180.53725 176.46876 182.155 175.7795 183.5 174.4375 C 184.846 173.09351 185.5 171.47375 185.5 169.59375 C 185.5 167.71276 184.851 166.12425 183.5 164.78125 C 182.15 163.43726 180.512 162.75 178.625 162.75 L 158.3125 162.75 L 158.3125 155.90625 C 158.3125 154.02326 157.6495 152.4035 156.3125 151.0625 C 154.9805 149.71551 153.368 149.03125 151.5 149.03125 z "
     xlink:href="#path3296"
     style="fill:#ffffff;fill-opacity:1"
     id="path3298"
     inkscape:href="#path3296"
     d="M 151.5,142.1875 C 147.95459,142.18752 144.27096,143.73094 141.8125,146.15625 C 139.32845,148.61055 137.75,152.3279 137.75,155.90625 L 137.75,183.25 C 137.75,190.53246 140.63128,197.44891 145.78125,202.59375 C 150.92668,207.74176 157.8372,210.59375 165.09375,210.59375 L 178.65625,210.59375 C 182.20862,210.59377 185.88566,209.01693 188.34375,206.5625 C 190.8237,204.0918 192.34375,200.37504 192.34375,196.90625 C 192.34375,193.43731 190.85088,189.72215 188.34375,187.21875 C 186.01941,184.89614 182.61038,183.41406 179.25,183.25 C 182.61411,183.08551 186.02208,181.59774 188.34375,179.28125 C 190.8521,176.77665 192.34375,173.06254 192.34375,169.59375 C 192.34375,166.13695 190.83232,162.41133 188.34375,159.9375 C 185.85773,157.46255 182.17539,155.90625 178.625,155.90625 L 165.15625,155.90625 C 165.15625,152.41517 163.6412,148.71113 161.15625,146.21875 C 158.69618,143.731 155.04098,142.1875 151.5,142.1875 z" />
  <path
     id="path3296"
     d="M 151.48482,149.02265 C 149.55982,149.02265 147.94482,149.70565 146.60982,151.02265 C 145.27482,152.34165 144.57857,153.96265 144.57857,155.89765 L 144.57857,183.2414 C 144.57857,188.8894 146.59982,193.7354 150.60982,197.7414 C 154.61682,201.7504 159.43257,203.7414 165.07857,203.7414 L 178.64107,203.7414 C 180.52407,203.7414 182.13982,203.05315 183.48482,201.71015 C 184.83082,200.36916 185.48482,198.77765 185.48482,196.89765 C 185.48482,195.01665 184.83082,193.3979 183.48482,192.0539 C 182.13982,190.70989 180.52207,190.02265 178.64107,190.02265 L 165.07857,190.02265 C 163.19557,190.02265 161.58507,189.3719 160.26607,188.0539 C 158.94707,186.7299 158.29732,185.1284 158.29732,183.2414 L 158.29732,176.46015 L 178.64107,176.46015 C 180.52207,176.46015 182.13982,175.7709 183.48482,174.4289 C 184.83082,173.0849 185.48482,171.46515 185.48482,169.58515 C 185.48482,167.70415 184.83582,166.11565 183.48482,164.77265 C 182.13482,163.42865 180.49682,162.7414 178.60982,162.7414 L 158.29732,162.7414 L 158.29732,155.89765 C 158.29732,154.01465 157.63432,152.3949 156.29732,151.0539 C 154.96532,149.7069 153.35282,149.02265 151.48482,149.02265 z"
     style="fill:#33ccff" />
</svg>
